<svg xmlns="http://www.w3.org/2000/svg" fill="none" width="32" height="32" viewBox="0 0 100 100">
  <g fill="currentColor" stroke="currentColor">
    <!-- Top left curved connector -->
    <path d="M25 15 Q20 15 20 20 L20 25 Q20 28 23 28 Q26 28 26 25 L26 22 Q26 20 28 20 L32 20" stroke-width="4" fill="none" stroke-linecap="round"/>
    
    <!-- Main vertical stem left -->
    <path d="M30 18 L30 82" stroke-width="5" stroke-linecap="round"/>
    
    <!-- Top horizontal connector -->
    <path d="M30 25 L45 25 Q48 25 48 28 L48 35" stroke-width="4" fill="none" stroke-linecap="round"/>
    
    <!-- Right vertical stem -->
    <path d="M48 30 L48 70" stroke-width="5" stroke-linecap="round"/>
    
    <!-- Top right curved element -->
    <path d="M48 20 Q48 15 53 15 L60 15 Q65 15 65 20 L65 28" stroke-width="4" fill="none" stroke-linecap="round"/>
    
    <!-- Middle connector -->
    <path d="M30 50 L48 50" stroke-width="4" stroke-linecap="round"/>
    
    <!-- Bottom left curve -->
    <path d="M20 75 Q20 82 27 82 L30 82" stroke-width="4" fill="none" stroke-linecap="round"/>
    
    <!-- Bottom connector -->
    <path d="M30 75 L45 75 Q48 75 48 72" stroke-width="4" fill="none" stroke-linecap="round"/>
    
    <!-- Right side curves -->
    <path d="M65 35 Q65 40 60 40 L55 40 Q52 40 52 43 L52 48" stroke-width="3" fill="none" stroke-linecap="round"/>
    
    <!-- Bottom right flourish -->
    <path d="M55 80 Q60 80 60 75 L60 70" stroke-width="3" fill="none" stroke-linecap="round"/>
    <path d="M60 85 Q65 85 68 82" stroke-width="3" fill="none" stroke-linecap="round"/>
    
    <!-- Node circles -->
    <circle cx="30" cy="18" r="3"/>
    <circle cx="30" cy="50" r="3"/>
    <circle cx="30" cy="82" r="3"/>
    <circle cx="48" cy="30" r="3"/>
    <circle cx="48" cy="70" r="3"/>
    <circle cx="65" cy="28" r="2.5"/>
  </g>
</svg>
