<?xml version="1.0" encoding="UTF-8"?>
<svg version="1.1" xmlns="http://www.w3.org/2000/svg" width="1024" height="768">
<path d="M0 0 C337.92 0 675.84 0 1024 0 C1024 253.44 1024 506.88 1024 768 C686.08 768 348.16 768 0 768 C0 514.56 0 261.12 0 0 Z " fill="#FEFEFE" transform="translate(0,0)"/>
<path d="M0 0 C6.56412341 5.0850565 10.18471307 12.47456138 11.78515625 20.5625 C11.90312877 23.04063787 11.97291236 25.49006185 11.98828125 27.96875 C11.99398132 28.68929565 11.9996814 29.40984131 12.0055542 30.15222168 C12.01498655 31.67861474 12.02153116 33.20502799 12.02539062 34.73144531 C12.03500784 37.02707399 12.06600899 39.3217721 12.09765625 41.6171875 C12.20248643 56.19876837 10.26007946 68.06926452 -0.04296875 78.984375 C-6.30594936 83.53517386 -12.73446829 84.06233646 -20.21484375 84 C-21.065625 84.01998047 -21.91640625 84.03996094 -22.79296875 84.06054688 C-30.96789688 84.05427776 -37.25882117 81.18763244 -43.21484375 75.5625 C-51.4465707 65.83409542 -51.84319283 52.87995298 -51.68139648 40.75024414 C-51.65224956 38.36729925 -51.66087278 35.98656571 -51.67382812 33.60351562 C-51.65813869 21.54681311 -50.60298888 11.73836435 -42.21484375 2.5625 C-30.57243755 -8.20672573 -13.01163307 -8.44493998 0 0 Z " fill="#090909" transform="translate(434.21484375,355.4375)"/>
<path d="M0 0 C1.91015625 0.1328125 1.91015625 0.1328125 3.91015625 1.1328125 C3.91015625 32.4828125 3.91015625 63.8328125 3.91015625 96.1328125 C0.28015625 96.1328125 -3.34984375 96.1328125 -7.08984375 96.1328125 C-7.58484375 92.1728125 -7.58484375 92.1728125 -8.08984375 88.1328125 C-8.74984375 88.8753125 -9.40984375 89.6178125 -10.08984375 90.3828125 C-14.94415118 95.14220331 -19.82460941 97.3642629 -26.65234375 97.5703125 C-33.04336466 97.28783644 -37.77237359 95.80587856 -42.27734375 91.1328125 C-45.82581072 86.68299696 -47.47809203 81.5301144 -49.08984375 76.1328125 C-49.28578125 75.51921875 -49.48171875 74.905625 -49.68359375 74.2734375 C-51.91305013 62.52591734 -50.68981851 48.31081365 -44.4453125 38.07421875 C-41.28007386 33.54072133 -38.33065375 30.8427378 -33.08984375 29.1328125 C-24.825116 28.09473075 -18.49150093 28.40410731 -11.76171875 33.52734375 C-10.08984375 35.1328125 -10.08984375 35.1328125 -8.08984375 38.1328125 C-8.05225952 36.45940796 -8.05225952 36.45940796 -8.01391602 34.75219727 C-7.92000954 30.6278866 -7.81974861 26.503751 -7.7175293 22.37963867 C-7.67411675 20.5919198 -7.63244646 18.80415776 -7.5925293 17.01635742 C-7.53497915 14.45217859 -7.47124172 11.88821838 -7.40625 9.32421875 C-7.38953751 8.5200502 -7.37282501 7.71588165 -7.35560608 6.88734436 C-7.17081823 0.02500192 -6.89756649 0.02503654 0 0 Z " fill="#0A0A0A" transform="translate(547.08984375,343.8671875)"/>
<path d="M0 0 C1.1484375 2.05078125 1.1484375 2.05078125 2 4 C1.45730469 4.24234375 0.91460937 4.4846875 0.35546875 4.734375 C-5.31718874 7.24124637 -5.31718874 7.24124637 -9 12 C-9.03989231 13.99960211 -9.04358638 16.000475 -9 18 C-8.11957031 18.23074219 -7.23914063 18.46148437 -6.33203125 18.69921875 C5.40705757 21.99554447 5.40705757 21.99554447 9 27 C10.28774446 30.86323338 10.23382793 34.57490537 10.31640625 38.60546875 C10.33718735 39.44467361 10.35796844 40.28387848 10.37937927 41.14851379 C10.44474018 43.82809294 10.50369714 46.50776969 10.5625 49.1875 C10.60569802 51.00456737 10.64931273 52.82162488 10.69335938 54.63867188 C10.8004078 59.09234799 10.90171319 63.54612226 11 68 C13.90002412 69.25127376 13.90002412 69.25127376 16.5625 68.4375 C17.7690625 68.2209375 17.7690625 68.2209375 19 68 C21 70 21 70 21.125 72.375 C19.56870471 76.00635567 17.36678207 76.57340581 13.8125 78.0078125 C11.64659324 78.92636444 11.64659324 78.92636444 11 82 C10.8833686 84.28586716 10.82135281 86.57466837 10.7890625 88.86328125 C10.76098627 90.23894403 10.73232176 91.61459492 10.703125 92.99023438 C10.66195739 95.14932827 10.62505259 97.30820177 10.59863281 99.4675293 C10.57086199 101.55824163 10.52499011 103.64795849 10.4765625 105.73828125 C10.45674316 106.98649658 10.43692383 108.23471191 10.41650391 109.52075195 C9.83432185 114.38398556 8.22603056 117.70184999 4.875 121.25 C1.2055721 123.48356481 -2.6525985 124.9918588 -7 125 C-8.7734375 123.53515625 -8.7734375 123.53515625 -10 122 C-9 119 -9 119 -7.22265625 117.97265625 C-5.78569489 117.3672096 -4.3481961 116.76303684 -2.91015625 116.16015625 C-0.53193349 114.71571421 0.08341803 113.60578016 1 111 C1 109.68 1 108.36 1 107 C-0.08667969 106.63648438 -0.08667969 106.63648438 -1.1953125 106.265625 C-12.14457831 102.46987952 -12.14457831 102.46987952 -16 99 C-18.57593196 93.29136617 -19.45847666 88.56094922 -19.51171875 82.34375 C-19.52966995 81.55601196 -19.54762115 80.76827393 -19.56611633 79.95666504 C-19.61976305 77.47116251 -19.65396616 74.9858468 -19.6875 72.5 C-19.72071357 70.80205758 -19.7552069 69.10413968 -19.79101562 67.40625 C-19.87546223 63.27096925 -19.94248856 59.13573948 -20 55 C-21.27875 55.20625 -22.5575 55.4125 -23.875 55.625 C-26.0546875 55.9765625 -26.0546875 55.9765625 -28 56 C-30 54 -30 54 -30.125 51.625 C-28.56485981 47.98467289 -26.33742617 47.33273569 -22.8125 45.796875 C-21.01756903 45.13847421 -21.01756903 45.13847421 -20 44 C-19.90171819 41.64714105 -19.86287069 39.31831944 -19.859375 36.96484375 C-19.84102775 35.50063573 -19.8214557 34.03644264 -19.80078125 32.57226562 C-19.77195935 30.2638265 -19.75000402 27.95633502 -19.74951172 25.64770508 C-19.72412156 8.83760702 -19.72412156 8.83760702 -14 3 C-9.51196148 -0.39339498 -5.4623908 -1.86871264 0 0 Z " fill="#050505" transform="translate(327,330)"/>
<path d="M0 0 C4.25598366 2.62344031 6.49216183 5.667499 8.15478516 10.44580078 C9.1064066 14.51636542 9.37002411 18.34906668 9.3828125 22.50390625 C9.3894693 23.27171417 9.3961261 24.03952209 9.40298462 24.83059692 C9.41305309 26.44579697 9.41780345 28.06103813 9.41748047 29.67626953 C9.42185127 32.12343087 9.45822302 34.56878208 9.49609375 37.015625 C9.56713348 46.86175699 9.1297726 54.3413037 2.609375 62.19921875 C-3.32375516 66.97466497 -9.60783643 67.03233999 -16.953125 66.26171875 C-22.00128854 64.73722813 -25.06436091 61.34137876 -28.0078125 57.140625 C-30.39139036 52.40301777 -30.12717875 47.14895041 -30.15625 41.9609375 C-30.16195007 41.16573196 -30.16765015 40.37052643 -30.17352295 39.55122375 C-30.18294192 37.87278562 -30.18949455 36.19432925 -30.19335938 34.51586914 C-30.20305381 31.9679282 -30.23410135 29.42079847 -30.265625 26.87304688 C-30.27215735 25.23568183 -30.27740691 23.59831107 -30.28125 21.9609375 C-30.2935968 21.20858322 -30.3059436 20.45622894 -30.31866455 19.68107605 C-30.29369899 13.6580517 -29.2180192 8.04184954 -25.3046875 3.23828125 C-17.02127204 -3.24602135 -9.66278916 -4.74809467 0 0 Z " fill="#FCFCFC" transform="translate(424.953125,362.73828125)"/>
<path d="M0 0 C5.46417712 3.41871187 9.77785417 8.67587573 11.796875 14.83203125 C12.81107906 20.92656021 12.59929232 27.24131686 12.22265625 33.390625 C11.22265625 34.390625 11.22265625 34.390625 7.34545898 34.50415039 C5.61571458 34.50399121 3.88596544 34.49829349 2.15625 34.48828125 C1.24762711 34.4868663 0.33900421 34.48545135 -0.59715271 34.48399353 C-3.51141596 34.47837693 -6.42560356 34.46582165 -9.33984375 34.453125 C-11.31054577 34.44811214 -13.28124899 34.44354886 -15.25195312 34.43945312 C-20.09377934 34.42840211 -24.9355487 34.41112638 -29.77734375 34.390625 C-29.30918449 36.48248842 -28.83707291 38.57346758 -28.36328125 40.6640625 C-27.96955322 42.41082275 -27.96955322 42.41082275 -27.56787109 44.19287109 C-26.43998333 48.75527811 -25.22855939 52.03011033 -21.77734375 55.265625 C-16.2574469 57.33558632 -10.26586747 57.37566564 -4.77734375 55.203125 C-1.13101668 51.89864109 0.53307248 47.93950437 2.22265625 43.390625 C3.70172517 43.36373284 5.18093108 43.34427879 6.66015625 43.328125 C7.89572266 43.31072266 7.89572266 43.31072266 9.15625 43.29296875 C11.22265625 43.390625 11.22265625 43.390625 12.22265625 44.390625 C12.09654883 51.45264037 9.76699482 56.02196455 5.22265625 61.390625 C-2.14758246 67.40714639 -10.61045901 67.09420125 -19.77734375 66.390625 C-27.02936681 64.72361531 -31.65604271 60.43876808 -35.77734375 54.390625 C-38.89962141 48.95273715 -40.53412741 43.67371372 -40.77734375 37.390625 C-40.82890625 36.24078125 -40.88046875 35.0909375 -40.93359375 33.90625 C-41.21591631 22.18986368 -39.7564693 12.42057289 -31.77734375 3.390625 C-22.52712355 -3.94998535 -10.76426525 -4.97081517 0 0 Z " fill="#0A0A0A" transform="translate(600.77734375,374.609375)"/>
<path d="M0 0 C1.23556641 0.01740234 1.23556641 0.01740234 2.49609375 0.03515625 C3.32238281 0.04417969 4.14867187 0.05320312 5 0.0625 C5.63808594 0.07410156 6.27617188 0.08570313 6.93359375 0.09765625 C11.55707677 10.96775995 16.09066468 21.86375161 20.40625 32.86035156 C20.72335937 33.66311523 21.04046875 34.46587891 21.3671875 35.29296875 C21.64618896 36.00469238 21.92519043 36.71641602 22.21264648 37.44970703 C22.81607958 39.10161335 22.81607958 39.10161335 23.93359375 40.09765625 C24.34722168 38.92146729 24.76084961 37.74527832 25.18701172 36.53344727 C26.71907084 32.18301577 28.26065034 27.83600982 29.80517578 23.48999023 C30.47315788 21.6061507 31.13853131 19.72138409 31.80126953 17.83569336 C32.75264124 15.13018561 33.71325078 12.42811717 34.67578125 9.7265625 C34.97169159 8.87864639 35.26760193 8.03073029 35.57247925 7.15711975 C37.70585034 1.21152796 37.70585034 1.21152796 39.93359375 0.09765625 C42.62372714 -0.08938779 45.23045552 0.01184234 47.93359375 0.09765625 C48.42859375 0.59265625 48.42859375 0.59265625 48.93359375 1.09765625 C48.55357636 7.85265925 46.50688979 13.42304021 43.99609375 19.66015625 C43.10154091 21.93046847 42.20844379 24.20135455 41.31640625 26.47265625 C41.06581955 27.10760513 40.81523285 27.74255402 40.55705261 28.39674377 C38.09219828 34.65451038 35.69459653 40.93742949 33.30078125 47.22265625 C32.89655441 48.28314682 32.49232758 49.34363739 32.07585144 50.43626404 C30.42700344 54.76249184 28.7784945 59.08884539 27.13284302 63.41629028 C25.96347842 66.48943267 24.79070015 69.56125215 23.6171875 72.6328125 C23.26030853 73.57330444 22.90342957 74.51379639 22.53573608 75.48278809 C22.04322861 76.7695343 22.04322861 76.7695343 21.54077148 78.08227539 C21.25338608 78.8365834 20.96600067 79.59089142 20.66990662 80.36805725 C19.93359375 82.09765625 19.93359375 82.09765625 18.93359375 83.09765625 C17.08071873 83.16992127 15.22525497 83.18146845 13.37109375 83.16015625 C11.85322266 83.14662109 11.85322266 83.14662109 10.3046875 83.1328125 C9.52222656 83.12121094 8.73976563 83.10960937 7.93359375 83.09765625 C8.52876395 79.65509454 9.41516813 76.6770642 10.81640625 73.48046875 C11.17863281 72.62582031 11.54085937 71.77117187 11.9140625 70.890625 C12.67547779 69.11572177 13.44629348 67.34482106 14.2265625 65.578125 C17.12718279 58.66446014 17.27937966 54.56778189 14.515625 47.44140625 C13.9337352 46.15652436 13.34353397 44.87538173 12.74609375 43.59765625 C12.10736118 42.1871081 11.47068822 40.77562573 10.8359375 39.36328125 C10.51608887 38.65365234 10.19624023 37.94402344 9.86669922 37.21289062 C7.89534998 32.74408639 6.13959719 28.18891967 4.3515625 23.64453125 C3.00116592 20.26667974 1.56949015 16.93436315 0.12109375 13.59765625 C-1.65869455 9.35706741 -2.86193103 5.69834861 -3.06640625 1.09765625 C-2.06640625 0.09765625 -2.06640625 0.09765625 0 0 Z " fill="#080808" transform="translate(690.06640625,372.90234375)"/>
<path d="M0 0 C5.20671964 1.64879455 8.06263642 3.38414295 11 8 C13.90294994 13.64144705 14.4650835 18.13665952 14.375 24.4375 C14.38660156 25.24509766 14.39820313 26.05269531 14.41015625 26.88476562 C14.37939441 33.24733859 13.51730951 39.04538505 9.24609375 44.05859375 C8.35083984 44.74115234 8.35083984 44.74115234 7.4375 45.4375 C6.83808594 45.91058594 6.23867188 46.38367188 5.62109375 46.87109375 C1.17045964 49.970451 -3.75478232 49.53894422 -9 49 C-13.41259943 46.60984197 -15.127532 43.58754661 -17 39 C-18.3021295 34.14660823 -18.25712337 29.24128 -18.3125 24.25 C-18.34150391 23.3940625 -18.37050781 22.538125 -18.40039062 21.65625 C-18.46826222 14.76467276 -17.01819862 8.84283072 -12.69360352 3.33666992 C-8.88648132 -0.35327043 -5.02421485 -0.88433956 0 0 Z " fill="#FAFAFA" transform="translate(526,382)"/>
<path d="M0 0 C0.8146875 0.00257813 1.629375 0.00515625 2.46875 0.0078125 C3.2834375 0.00523437 4.098125 0.00265625 4.9375 0 C6.96875 0.1328125 6.96875 0.1328125 7.96875 1.1328125 C8.06401806 4.08527604 8.09427452 7.01429671 8.08227539 9.96704102 C8.08242142 10.89377625 8.08256744 11.82051147 8.0827179 12.77532959 C8.08201838 15.85414937 8.07422421 18.93290947 8.06640625 22.01171875 C8.06454221 24.14021268 8.06311824 26.26870703 8.06211853 28.39720154 C8.05829228 34.0114357 8.04846108 39.62564418 8.03741455 45.23986816 C8.02720273 50.96394503 8.0226214 56.68802603 8.01757812 62.41210938 C8.00683891 73.65235506 7.9897612 84.89258165 7.96875 96.1328125 C4.33875 96.1328125 0.70875 96.1328125 -3.03125 96.1328125 C-3.05437154 83.76362535 -3.07216412 71.39444331 -3.08306217 59.02523899 C-3.08829141 53.28236188 -3.0953898 47.53949949 -3.10668945 41.79663086 C-3.11751687 36.25941255 -3.12352652 30.72220846 -3.12612724 25.18498039 C-3.12798176 23.06736973 -3.13160286 20.94975988 -3.13698006 18.83215523 C-3.14418856 15.87709976 -3.14524102 12.92210379 -3.14477539 9.96704102 C-3.14837067 9.08231613 -3.15196594 8.19759125 -3.15567017 7.28605652 C-3.14351442 0.20553748 -3.14351442 0.20553748 0 0 Z " fill="#010101" transform="translate(668.03125,343.8671875)"/>
<path d="M0 0 C1.91015625 0.23046875 1.91015625 0.23046875 3.91015625 2.23046875 C4.53515625 4.85546875 4.53515625 4.85546875 4.91015625 7.23046875 C5.52503906 6.80894531 6.13992188 6.38742187 6.7734375 5.953125 C7.58167969 5.40527344 8.38992188 4.85742188 9.22265625 4.29296875 C10.02316406 3.74769531 10.82367188 3.20242188 11.6484375 2.640625 C16.13744673 -0.15822186 19.78567337 0.06516285 24.91015625 0.23046875 C25.91015625 1.23046875 25.91015625 1.23046875 26.0078125 3.296875 C25.99621094 4.12058594 25.98460937 4.94429688 25.97265625 5.79296875 C25.96363281 6.61925781 25.95460938 7.44554687 25.9453125 8.296875 C25.93371094 8.93496094 25.92210937 9.57304687 25.91015625 10.23046875 C24.60691406 10.48570312 24.60691406 10.48570312 23.27734375 10.74609375 C14.39123605 12.49771705 14.39123605 12.49771705 6.91015625 17.23046875 C5.096419 20.19251416 4.64817771 22.45716714 4.59130859 25.90722656 C4.5714389 26.82787903 4.55156921 27.74853149 4.53109741 28.69708252 C4.5137706 30.17540558 4.5137706 30.17540558 4.49609375 31.68359375 C4.4767276 32.69895203 4.45736145 33.7143103 4.43740845 34.76043701 C4.37767526 38.0003624 4.33125197 41.24032343 4.28515625 44.48046875 C4.24697074 46.67840083 4.20791867 48.87631803 4.16796875 51.07421875 C4.0719787 56.45951449 3.9879242 61.84488029 3.91015625 67.23046875 C0.28015625 67.23046875 -3.34984375 67.23046875 -7.08984375 67.23046875 C-7.1129701 58.64241155 -7.13076033 50.05436726 -7.14165592 41.46628666 C-7.14688411 37.47889675 -7.15398059 33.49152808 -7.1652832 29.50415039 C-7.17611436 25.65921761 -7.18212107 21.8143053 -7.18472099 17.96935844 C-7.18657483 16.49927892 -7.19019466 15.02920057 -7.19557381 13.55912971 C-7.2027873 11.50692408 -7.20383456 9.45480408 -7.20336914 7.40258789 C-7.20558975 6.23232559 -7.20781036 5.06206329 -7.21009827 3.8563385 C-6.98386848 -1.08360021 -4.35826956 0.0870072 0 0 Z " fill="#080808" transform="translate(466.08984375,372.76953125)"/>
<path d="M0 0 C7.75 -0.125 7.75 -0.125 10 1 C10 3.31 10 5.62 10 8 C10.51949219 7.59007812 11.03898438 7.18015625 11.57421875 6.7578125 C18.24644054 1.60256535 22.51979775 -0.42401011 31 0 C32 1 32 1 32.09765625 3.06640625 C32.08605469 3.89011719 32.07445312 4.71382813 32.0625 5.5625 C32.05347656 6.38878906 32.04445313 7.21507812 32.03515625 8.06640625 C32.02355469 8.70449219 32.01195312 9.34257812 32 10 C31.11957031 10.18175781 30.23914063 10.36351562 29.33203125 10.55078125 C28.17058594 10.80214844 27.00914062 11.05351562 25.8125 11.3125 C24.66394531 11.55613281 23.51539063 11.79976563 22.33203125 12.05078125 C18.10910647 13.25379499 15.21529347 14.52955389 12.390625 17.94726562 C10.34359745 22.44095111 10.52012435 26.66518691 10.48828125 31.55078125 C10.47033005 32.56472458 10.45237885 33.57866791 10.43388367 34.62333679 C10.37982154 37.85301592 10.34589756 41.08254757 10.3125 44.3125 C10.27932337 46.50587987 10.24483339 48.6992403 10.20898438 50.89257812 C10.12409713 56.2616123 10.05726597 61.63060304 10 67 C6.37 67 2.74 67 -1 67 C-1.02314265 58.55959739 -1.04092492 50.11920798 -1.05181217 41.67878151 C-1.05703678 37.7598013 -1.0641268 33.84084274 -1.07543945 29.921875 C-1.08628329 26.14177614 -1.09228002 22.36169814 -1.09487724 18.58158493 C-1.09672878 17.13745164 -1.10034424 15.69331953 -1.10573006 14.2491951 C-1.1129602 12.23075723 -1.11340823 10.21229847 -1.11352539 8.19384766 C-1.115746 7.04357086 -1.11796661 5.89329407 -1.12025452 4.7081604 C-1 2 -1 2 0 0 Z " fill="#080808" transform="translate(624,373)"/>
<path d="M0 0 C1.2375 0.061875 2.475 0.12375 3.75 0.1875 C4.79414063 0.23970703 4.79414063 0.23970703 5.859375 0.29296875 C9.11242596 1.36742536 10.15190129 3.15770721 12 6 C12.45068359 9.39404297 12.45068359 9.39404297 12.3984375 13.2421875 C12.40317409 14.65234541 12.40839762 16.06250176 12.4140625 17.47265625 C12.39935339 19.67362906 12.37501654 21.87396524 12.33984375 24.07470703 C11.88055818 33.93886778 11.88055818 33.93886778 16.0390625 42.5078125 C17.01617187 43.33023438 17.99328125 44.15265625 19 45 C18.34 46.32 17.68 47.64 17 49 C16.34 49 15.68 49 15 49 C12.5671797 53.99316748 12.59787602 58.9547126 12.43359375 64.38085938 C12.20178116 69.79821884 12.20178116 69.79821884 10 72 C6.82274961 71.79719678 4.71277993 71.56530822 2.1875 69.5625 C-0.40261229 66.15445752 -0.13791674 63.46103491 -0.17578125 59.234375 C-0.19899092 57.85545368 -0.22310872 56.4765474 -0.24804688 55.09765625 C-0.28306566 52.92747092 -0.31245135 50.75783496 -0.32592773 48.58740234 C-0.34149507 46.48988322 -0.38176456 44.39396578 -0.42578125 42.296875 C-0.44036377 41.04229492 -0.45494629 39.78771484 -0.4699707 38.49511719 C-1.09052572 34.40305567 -2.42981845 32.20664465 -5 29 C-5.66 28.67 -6.32 28.34 -7 28 C-7 24 -7 24 -4.5625 21.4375 C-3.716875 20.633125 -2.87125 19.82875 -2 19 C-0.76240177 15.28720531 -0.64391103 11.68693654 -0.4375 7.8125 C-0.37272461 6.68811523 -0.37272461 6.68811523 -0.30664062 5.54101562 C-0.20077315 3.69421625 -0.0999024 1.84713166 0 0 Z " fill="#F8F8F8" transform="translate(317,356)"/>
<path d="M0 0 C1.1484375 2.05078125 1.1484375 2.05078125 2 4 C1.45730469 4.24234375 0.91460937 4.4846875 0.35546875 4.734375 C-5.31718874 7.24124637 -5.31718874 7.24124637 -9 12 C-9.25086724 15.16732421 -9.25086724 15.16732421 -9 18 C-5.7 18.99 -2.4 19.98 1 21 C1 23.31 1 25.62 1 28 C-2.92896395 28 -6.19893228 26.99700137 -10 26 C-9.94779297 27.62808594 -9.94779297 27.62808594 -9.89453125 29.2890625 C-9.86637612 30.73435942 -9.83907781 32.17967321 -9.8125 33.625 C-9.78736328 34.33785156 -9.76222656 35.05070312 -9.73632812 35.78515625 C-9.67003927 40.60214626 -10.34828263 43.81844569 -13 48 C-15.1875 49.375 -15.1875 49.375 -17 50 C-17 51.32 -17 52.64 -17 54 C-16.38125 54.2475 -15.7625 54.495 -15.125 54.75 C-12.64931313 56.20628639 -12.04874998 57.37812506 -11 60 C-11.61875 59.79375 -12.2375 59.5875 -12.875 59.375 C-13.926875 59.189375 -13.926875 59.189375 -15 59 C-17.82879286 61.82879286 -17.3142666 63.79924198 -17.4140625 67.7578125 C-17.43342865 68.42086395 -17.4527948 69.08391541 -17.4727478 69.76705933 C-17.53255954 71.88624177 -17.57893388 74.0054785 -17.625 76.125 C-17.66317845 77.56122169 -17.70223011 78.99742045 -17.7421875 80.43359375 C-17.83826125 83.95551936 -17.92228642 87.47761608 -18 91 C-18.33 91 -18.66 91 -19 91 C-19.33 79.12 -19.66 67.24 -20 55 C-22.64 55.33 -25.28 55.66 -28 56 C-30 54 -30 54 -30.125 51.625 C-28.56485981 47.98467289 -26.33742617 47.33273569 -22.8125 45.796875 C-21.01756903 45.13847421 -21.01756903 45.13847421 -20 44 C-19.90171819 41.64714105 -19.86287069 39.31831944 -19.859375 36.96484375 C-19.84102775 35.50063573 -19.8214557 34.03644264 -19.80078125 32.57226562 C-19.77195935 30.2638265 -19.75000402 27.95633502 -19.74951172 25.64770508 C-19.72412156 8.83760702 -19.72412156 8.83760702 -14 3 C-9.51196148 -0.39339498 -5.4623908 -1.86871264 0 0 Z " fill="#151515" transform="translate(327,330)"/>
<path d="M0 0 C5.84760527 0.29733586 9.39290626 1.12585299 14 5 C18.1124952 9.98305751 18.55446253 13.50269281 18.390625 19.6796875 C18.38496521 20.49245148 18.37930542 21.30521545 18.37347412 22.14260864 C18.35120838 24.72068945 18.30103315 27.29734431 18.25 29.875 C18.2299222 31.63018816 18.21167367 33.38539826 18.1953125 35.140625 C18.15137612 39.42762689 18.08241911 43.71357227 18 48 C16.68 48.66 15.36 49.32 14 50 C10.32024418 46.82202907 9.12228624 43.56014325 8.74462891 38.74194336 C8.73866699 37.53675049 8.73270508 36.33155762 8.7265625 35.08984375 C8.7059375 33.77048828 8.6853125 32.45113281 8.6640625 31.09179688 C8.64142916 29.00928396 8.62497092 26.92711292 8.61914062 24.84448242 C8.60961273 22.82194916 8.57466188 20.79958613 8.5390625 18.77734375 C8.53084473 17.57327881 8.52262695 16.36921387 8.51416016 15.12866211 C7.90025977 11.39308119 6.94938656 10.29186521 4 8 C2.03120677 6.93988057 0.03564133 5.92529151 -2 5 C-1.125 1.125 -1.125 1.125 0 0 Z " fill="#101010" transform="translate(336,337)"/>
<path d="M0 0 C1.875 0.125 1.875 0.125 4 1 C6.99939332 4.9651761 7.37722744 7.96754973 7.40625 12.875 C7.42816406 14.18984375 7.45007813 15.5046875 7.47265625 16.859375 C7.48887129 18.93293433 7.50003502 21.00648637 7.51123047 23.08007812 C7.52698836 25.09517821 7.56016864 27.11011813 7.59375 29.125 C7.60083984 30.32382812 7.60792969 31.52265625 7.61523438 32.7578125 C8.03442578 36.29008522 8.89298065 38.16549232 11 41 C12.9937797 42.41455894 12.9937797 42.41455894 15.1875 43.3125 C16.26064453 43.80169922 16.26064453 43.80169922 17.35546875 44.30078125 C17.89816406 44.53152344 18.44085938 44.76226562 19 45 C17.125 48.875 17.125 48.875 16 50 C10.08133955 49.75842202 5.53431026 47.86719335 1 44 C-1.78113453 40.08949599 -1.27026656 35.70642773 -1.23046875 31.11328125 C-1.23001053 30.25566696 -1.22955231 29.39805267 -1.2290802 28.51445007 C-1.22606463 26.70647798 -1.21819915 24.89850833 -1.20581055 23.09057617 C-1.18749832 20.31224453 -1.18530133 17.5342452 -1.18554688 14.75585938 C-1.18063359 12.9999971 -1.17480611 11.24413709 -1.16796875 9.48828125 C-1.16685593 8.65291336 -1.1657431 7.81754547 -1.16459656 6.9568634 C-1.11606528 1.11606528 -1.11606528 1.11606528 0 0 Z " fill="#080808" transform="translate(291,392)"/>
<path d="M0 0 C4.05136045 1.74749203 5.81424957 4.65326587 7.875 8.5 C9 12 9 12 9 17 C-1.23 17 -11.46 17 -22 17 C-19.74566474 6.85549133 -19.74566474 6.85549133 -17 4 C-16.484375 3.443125 -15.96875 2.88625 -15.4375 2.3125 C-11.30690021 -1.4589172 -5.22031924 -0.59368336 0 0 Z " fill="#FAFAFA" transform="translate(593,382)"/>
<path d="M0 0 C3.125 0.375 3.125 0.375 6 1 C7.31049366 4.49464976 6.99344357 6.64053348 5.5 9.9375 C2.48263097 15.4798202 -2.18822115 19.5429878 -8 22 C-10.25 21.625 -10.25 21.625 -12 21 C-12.33 19.35 -12.66 17.7 -13 16 C-12.37351562 15.74347656 -11.74703125 15.48695313 -11.1015625 15.22265625 C-6.09458008 13.0098869 -6.09458008 13.0098869 -3.02734375 8.734375 C-2.53235179 6.33867642 -2.53235179 6.33867642 -2.31640625 3.98828125 C-2 2 -2 2 0 0 Z " fill="#0C0C0C" transform="translate(297,343)"/>
<path d="M0 0 C0.8971875 0.309375 0.8971875 0.309375 1.8125 0.625 C2.4375 3 2.4375 3 2.8125 5.625 C0.8125 7.625 0.8125 7.625 -2.6875 9.0625 C-6.38187242 10.33843494 -6.38187242 10.33843494 -8.1875 13.625 C-9.8375 13.295 -11.4875 12.965 -13.1875 12.625 C-13.5175 11.305 -13.8475 9.985 -14.1875 8.625 C-12.75101736 7.49870125 -11.31327415 6.3740101 -9.875 5.25 C-9.07449219 4.62351562 -8.27398437 3.99703125 -7.44921875 3.3515625 C-2.49788851 -0.42820946 -2.49788851 -0.42820946 0 0 Z " fill="#101010" transform="translate(359.1875,417.375)"/>
<path d="M0 0 C5.21530312 0.34768687 8.66375707 0.8833254 13 4 C12.75 5.875 12.75 5.875 12 8 C10.28125 9.28125 10.28125 9.28125 8 10 C5.421875 9.1015625 5.421875 9.1015625 2.75 7.625 C1.41195313 6.90183594 1.41195313 6.90183594 0.046875 6.1640625 C-0.62859375 5.77992188 -1.3040625 5.39578125 -2 5 C-1.125 1.125 -1.125 1.125 0 0 Z " fill="#090909" transform="translate(336,337)"/>
<path d="M0 0 C0.625 2.375 0.625 2.375 1 5 C-1.5654594 7.5654594 -3.47686668 7.54046087 -7 8 C-7.66 6.68 -8.32 5.36 -9 4 C-8.34 3.67 -7.68 3.34 -7 3 C-6.67 2.01 -6.34 1.02 -6 0 C-3.50907189 -1.24546405 -2.58919267 -0.7767578 0 0 Z " fill="#0D0D0D" transform="translate(347,399)"/>
<path d="M0 0 C2.4375 0.1875 2.4375 0.1875 5 1 C6.3125 3.0625 6.3125 3.0625 7 5 C4.36 5.99 1.72 6.98 -1 8 C-1.04241723 5.66705225 -1.04092937 3.33297433 -1 1 C-0.67 0.67 -0.34 0.34 0 0 Z " fill="#111111" transform="translate(322,329)"/>
<path d="M0 0 C1.32 1.32 2.64 2.64 4 4 C3.01 4 2.02 4 1 4 C-1.15028304 4.94978897 -1.15028304 4.94978897 -3 6 C-2.42655063 3.13275314 -2.1385485 2.1385485 0 0 Z " fill="#121212" transform="translate(312,385)"/>
<path d="M0 0 C2.64 0 5.28 0 8 0 C5.01353231 1.99097846 2.40312738 2.94124926 -1 4 C-0.67 2.68 -0.34 1.36 0 0 Z " fill="#2E2E2E" transform="translate(460,373)"/>
<path d="M0 0 C0.99 0.33 1.98 0.66 3 1 C2.01 1.33 1.02 1.66 0 2 C-0.6837045 3.32467746 -1.34964186 4.65863633 -2 6 C-2.99 6.66 -3.98 7.32 -5 8 C-3.8141763 4.62496331 -2.72426311 2.35277269 0 0 Z " fill="#EAEAEA" transform="translate(322,336)"/>
<path d="M0 0 C0.66 0.33 1.32 0.66 2 1 C1.01 1.33 0.02 1.66 -1 2 C-2.20882096 4.00016466 -2.20882096 4.00016466 -3 6 C-4.32 5.67 -5.64 5.34 -7 5 C-4.69 3.35 -2.38 1.7 0 0 Z " fill="#1F1F1F" transform="translate(575,374)"/>
</svg>
