<?xml version="1.0" encoding="UTF-8"?>
<svg version="1.1" xmlns="http://www.w3.org/2000/svg" width="291" height="320">
<path d="M0 0 C96.03 0 192.06 0 291 0 C291 105.6 291 211.2 291 320 C194.97 320 98.94 320 0 320 C0 214.4 0 108.8 0 0 Z " fill="#FEFEFE" transform="translate(0,0)"/>
<path d="M0 0 C1.8125 1.5 1.8125 1.5 3 3 C2.67 3.99 2.34 4.98 2 6 C-0.31979381 7.03101947 -2.65429915 8.02936517 -5 9 C-6.96040481 10.12640605 -6.96040481 10.12640605 -8 12 C-8.73041853 15.61023099 -8.73041853 15.61023099 -9 19 C-8.19175781 19.18175781 -7.38351563 19.36351563 -6.55078125 19.55078125 C-5.48214844 19.80214844 -4.41351563 20.05351563 -3.3125 20.3125 C-2.25675781 20.55613281 -1.20101562 20.79976562 -0.11328125 21.05078125 C4.01208994 22.30857949 6.90847003 23.6160723 9.61132812 27.04296875 C11.50904436 31.08395662 11.47762427 34.60549211 11.51171875 39.01953125 C11.52966995 39.87810226 11.54762115 40.73667328 11.56611633 41.6212616 C11.62010741 44.3516251 11.65407874 47.08181492 11.6875 49.8125 C11.720683 51.6686439 11.75517358 53.52476492 11.79101562 55.38085938 C11.87582734 59.92044738 11.94269177 64.45998486 12 69 C12.63808594 68.98839844 13.27617187 68.97679687 13.93359375 68.96484375 C14.75988281 68.95582031 15.58617187 68.94679688 16.4375 68.9375 C17.26121094 68.92589844 18.08492187 68.91429687 18.93359375 68.90234375 C21 69 21 69 22 70 C22.04063832 71.66617115 22.042721 73.33388095 22 75 C21.36191406 75.25394531 20.72382813 75.50789063 20.06640625 75.76953125 C18.82697266 76.28580078 18.82697266 76.28580078 17.5625 76.8125 C16.73878906 77.14894531 15.91507813 77.48539062 15.06640625 77.83203125 C12.66627512 78.88403088 12.66627512 78.88403088 12 82 C11.8833686 84.28586716 11.82135281 86.57466837 11.7890625 88.86328125 C11.76098627 90.23894403 11.73232176 91.61459492 11.703125 92.99023438 C11.66195739 95.14932827 11.62505259 97.30820177 11.59863281 99.4675293 C11.57086199 101.55824163 11.52499011 103.64795849 11.4765625 105.73828125 C11.45674316 106.98649658 11.43692383 108.23471191 11.41650391 109.52075195 C10.83432185 114.38398556 9.22603056 117.70184999 5.875 121.25 C2.2055721 123.48356481 -1.6525985 124.9918588 -6 125 C-7.7734375 123.53515625 -7.7734375 123.53515625 -9 122 C-8 119 -8 119 -6.22265625 117.97265625 C-4.78569489 117.3672096 -3.3481961 116.76303684 -1.91015625 116.16015625 C0.46806651 114.71571421 1.08341803 113.60578016 2 111 C2 109.68 2 108.36 2 107 C0.78763672 106.63648438 0.78763672 106.63648438 -0.44921875 106.265625 C-12.59306535 102.4569397 -12.59306535 102.4569397 -16.09130859 97.43261719 C-17.48487525 93.70196213 -17.3592104 90.03101529 -17.4140625 86.078125 C-17.43342865 85.21813904 -17.4527948 84.35815308 -17.4727478 83.47210693 C-17.53241814 80.73150479 -17.5788786 77.99086036 -17.625 75.25 C-17.66319134 73.38930483 -17.70224375 71.52862712 -17.7421875 69.66796875 C-17.83810935 65.11212136 -17.92218668 60.55619121 -18 56 C-18.62648437 56.02320313 -19.25296875 56.04640625 -19.8984375 56.0703125 C-20.71570313 56.08835938 -21.53296875 56.10640625 -22.375 56.125 C-23.18710938 56.14820313 -23.99921875 56.17140625 -24.8359375 56.1953125 C-27 56 -27 56 -29 54 C-28.87109375 51.99609375 -28.87109375 51.99609375 -28 50 C-26.03814555 48.79701672 -24.05111611 48.05805801 -21.91015625 47.22265625 C-19.2455684 45.51710206 -18.94208505 44.00637094 -18 41 C-17.6994692 37.61495074 -17.6994692 37.61495074 -17.7265625 33.94140625 C-17.70627606 32.57225741 -17.68542532 31.20311684 -17.6640625 29.83398438 C-17.64148561 27.69678726 -17.62499293 25.5599183 -17.61914062 23.42260742 C-17.60956949 21.34495221 -17.57575065 19.26873568 -17.5390625 17.19140625 C-17.53084473 15.95592041 -17.52262695 14.72043457 -17.51416016 13.44750977 C-16.81216608 8.74054946 -14.87598643 5.39486864 -11.03515625 2.5390625 C-3.88059701 -0.7761194 -3.88059701 -0.7761194 0 0 Z " fill="#060606" transform="translate(149,98)"/>
<path d="M0 0 C3.80947116 0.80584967 6.37304386 1.39131821 9.20288086 4.13867188 C11.4394884 7.69974243 11.49765586 9.90870319 11.50390625 14.09375 C11.51332748 14.76289429 11.52274872 15.43203857 11.53245544 16.12145996 C11.5609912 18.2479552 11.56418822 20.37332929 11.5625 22.5 C11.56611733 24.62650632 11.57574551 26.75220194 11.60325623 28.87854004 C11.62765793 30.80756657 11.62997607 32.73683509 11.63110352 34.66601562 C12.03165415 38.28608143 12.80612644 40.12418158 15 43 C15.99 43.66 16.98 44.32 18 45 C16.89365888 47.48926752 15.86313049 49.14316236 13.9609375 51.1328125 C11.46370179 54.78414918 11.40596259 57.91079238 11.375 62.1875 C11.24014053 69.75985947 11.24014053 69.75985947 9 72 C5.5625 71.9375 5.5625 71.9375 2 71 C-1.09039895 67.1236653 -1.37745547 63.99389317 -1.40625 59.125 C-1.43912109 57.15273437 -1.43912109 57.15273437 -1.47265625 55.140625 C-1.48887129 53.06706567 -1.50003502 50.99351363 -1.51123047 48.91992188 C-1.52698836 46.90482179 -1.56016864 44.88988187 -1.59375 42.875 C-1.60083984 41.67617187 -1.60792969 40.47734375 -1.61523438 39.2421875 C-2.12116759 34.97899395 -3.55632957 32.28899145 -6.75 29.4375 C-8 28 -8 28 -7.9375 26.0625 C-6.75625549 23.46376207 -5.03847029 21.97476809 -3 20 C-1.54650045 15.63950136 -1.60860644 11.18791503 -1.39453125 6.62890625 C-1.10148709 1.10148709 -1.10148709 1.10148709 0 0 Z " fill="#F7F7F7" transform="translate(141,124)"/>
<path d="M0 0 C6.76644115 0.34405633 11.10784772 1.80865955 15.8125 7 C18.38445121 11.3317073 18.16033577 15.84127275 18.16796875 20.7578125 C18.17129715 21.50207489 18.17462555 22.24633728 18.17805481 23.01315308 C18.18310502 24.58151635 18.18546373 26.14989032 18.18530273 27.71826172 C18.18749868 30.12354989 18.20569974 32.52838609 18.22460938 34.93359375 C18.22754176 36.45833176 18.22952759 37.98307196 18.23046875 39.5078125 C18.23765427 40.22865021 18.24483978 40.94948792 18.25224304 41.69216919 C18.22883808 46.77116192 18.22883808 46.77116192 16 49 C14.0625 49 14.0625 49 12 48 C9.27356802 43.54369109 8.63203832 40.17541912 8.62890625 34.9921875 C8.61150391 33.67605469 8.59410156 32.35992187 8.57617188 31.00390625 C8.5660778 28.93240408 8.56251141 26.86107662 8.56420898 24.78955078 C8.56063725 22.77366597 8.5325887 20.75787142 8.50390625 18.7421875 C8.50205322 17.5444873 8.5002002 16.34678711 8.49829102 15.11279297 C7.90085608 11.38065411 6.94413417 10.28844785 4 8 C2.03120677 6.93988057 0.03564133 5.92529151 -2 5 C-1.125 1.125 -1.125 1.125 0 0 Z " fill="#0F0F0F" transform="translate(159,106)"/>
<path d="M0 0 C2.4375 0.25 2.4375 0.25 5 1 C7.44346476 4.66519714 7.26554778 6.52913055 7.30859375 10.8984375 C7.33375716 12.27864999 7.35915513 13.65885823 7.38476562 15.0390625 C7.41347217 17.20701968 7.43749916 19.37490281 7.45629883 21.54296875 C7.47803406 23.64101543 7.51747904 25.73819391 7.55859375 27.8359375 C7.57204834 29.08938965 7.58550293 30.3428418 7.59936523 31.63427734 C8.02767653 35.23250983 8.84503855 37.12134766 11 40 C12.9937797 41.41455894 12.9937797 41.41455894 15.1875 42.3125 C16.26064453 42.80169922 16.26064453 42.80169922 17.35546875 43.30078125 C17.89816406 43.53152344 18.44085938 43.76226562 19 44 C18.67 45.32 18.34 46.64 18 48 C12.6930484 49.3267379 9.78245615 48.89525852 4.89453125 46.49609375 C1.73661853 44.00231938 -0.63404933 41.04875756 -1.35700989 37.001297 C-1.47747991 34.70318856 -1.47631564 32.43742159 -1.42578125 30.13671875 C-1.42249313 29.3041304 -1.41920502 28.47154205 -1.41581726 27.61372375 C-1.40544005 25.86471669 -1.38556457 24.11574284 -1.35668945 22.36694336 C-1.31235459 19.67868305 -1.29521119 16.99131616 -1.28320312 14.30273438 C-1.26978907 12.60154948 -1.25486887 10.90037566 -1.23828125 9.19921875 C-1.23089432 8.39199875 -1.22350739 7.58477875 -1.21589661 6.75309753 C-1.11833979 1.11833979 -1.11833979 1.11833979 0 0 Z " fill="#050505" transform="translate(114,161)"/>
<path d="M0 0 C2.5 0.25 2.5 0.25 4.5 2.25 C5.12096236 7.35380018 3.13699249 10.05942117 0.27734375 14.08984375 C-2.25716468 17.1702463 -4.84856754 19.58357445 -8.5 21.25 C-11.9375 21.5625 -11.9375 21.5625 -14.5 21.25 C-14.83 19.6 -15.16 17.95 -15.5 16.25 C-10.75163704 13.34822264 -10.75163704 13.34822264 -8.3984375 12.4296875 C-6.31156941 11.40440895 -6.31156941 11.40440895 -5.7421875 9.15625 C-5.62101562 8.3621875 -5.49984375 7.568125 -5.375 6.75 C-4.37066975 0.43706697 -4.37066975 0.43706697 0 0 Z " fill="#0F0F0F" transform="translate(122.5,111.75)"/>
<path d="M0 0 C0.33 1.32 0.66 2.64 1 4 C-1.36210866 5.44351085 -3.667828 6.84814994 -6.1875 8 C-8.33477942 9.00322742 -8.33477942 9.00322742 -10 12 C-11.65 11.67 -13.3 11.34 -15 11 C-15.33 9.68 -15.66 8.36 -16 7 C-14.5433323 5.85204994 -13.08461063 4.70670581 -11.625 3.5625 C-10.40683594 2.60537109 -10.40683594 2.60537109 -9.1640625 1.62890625 C-5.60311971 -1.05144239 -4.28695362 -1.01533112 0 0 Z " fill="#0C0C0C" transform="translate(184,187)"/>
<path d="M0 0 C1.0828125 0.680625 1.0828125 0.680625 2.1875 1.375 C4.74894081 2.85494358 7.23277989 3.97217539 10 5 C9.67 6.32 9.34 7.64 9 9 C3.46363695 10.38409076 0.61602735 9.78694899 -4.3984375 7.10546875 C-6 6 -6 6 -7 4 C-6.030625 3.71125 -5.06125 3.4225 -4.0625 3.125 C-0.89335797 2.35785318 -0.89335797 2.35785318 0 0 Z " fill="#0C0C0C" transform="translate(123,200)"/>
<path d="M0 0 C1 1 1 1 1.0625 3.5625 C1.041875 4.366875 1.02125 5.17125 1 6 C-1.31 6.66 -3.62 7.32 -6 8 C-7.5625 6.75 -7.5625 6.75 -9 5 C-8.875 2.875 -8.875 2.875 -8 1 C-5.05549278 0.01849759 -3.06481021 -0.1613058 0 0 Z " fill="#0D0D0D" transform="translate(170,167)"/>
<path d="M0 0 C0 0.66 0 1.32 0 2 C0.99 1.34 1.98 0.68 3 0 C2.67 1.98 2.34 3.96 2 6 C-4.0546875 6.9765625 -4.0546875 6.9765625 -6 7 C-6.66 6.34 -7.32 5.68 -8 5 C-7.9375 3 -7.9375 3 -7 1 C-2.66666667 -1.33333333 -2.66666667 -1.33333333 0 0 Z " fill="#0E0E0E" transform="translate(128,147)"/>
<path d="M0 0 C2.04119788 1.61594832 4.04072937 3.2856382 6 5 C6 5.66 6 6.32 6 7 C6.99 7.33 7.98 7.66 9 8 C3.00708997 7.58669586 -0.25036599 6.68096635 -5 3 C-2 1 -2 1 0 0 Z " fill="#161616" transform="translate(121,202)"/>
<path d="M0 0 C1.65 0.33 3.3 0.66 5 1 C4.67 2.32 4.34 3.64 4 5 C1.625 5.625 1.625 5.625 -1 6 C-1.66 5.34 -2.32 4.68 -3 4 C-2.01 2.68 -1.02 1.36 0 0 Z " fill="#EFEFEF" transform="translate(129,198)"/>
<path d="M0 0 C0 1.65 0 3.3 0 5 C-0.99 5 -1.98 5 -3 5 C-3.33 4.34 -3.66 3.68 -4 3 C-4.99 3 -5.98 3 -7 3 C-7.33 2.34 -7.66 1.68 -8 1 C-5.07175348 0.02391783 -3.04386724 -0.08226668 0 0 Z " fill="#ECECEC" transform="translate(131,153)"/>
<path d="M0 0 C0.33 0.99 0.66 1.98 1 3 C-0.45017921 5.59505753 -1.34638817 6.77590452 -4.1875 7.75 C-4.785625 7.8325 -5.38375 7.915 -6 8 C-6 6.68 -6 5.36 -6 4 C-4 2.25 -4 2.25 -2 1 C-1.34 1.33 -0.68 1.66 0 2 C0 1.34 0 0.68 0 0 Z " fill="#E8E8E8" transform="translate(117,118)"/>
<path d="M0 0 C4.55384615 -0.36923077 4.55384615 -0.36923077 6.8125 1.5 C7.204375 1.995 7.59625 2.49 8 3 C7.67 3.99 7.34 4.98 7 6 C6.34 6 5.68 6 5 6 C4.67 5.34 4.34 4.68 4 4 C3.01 4.495 3.01 4.495 2 5 C2 4.01 2 3.02 2 2 C1.34 1.34 0.68 0.68 0 0 Z " fill="#222222" transform="translate(144,98)"/>
<path d="M0 0 C0.66 0.99 1.32 1.98 2 3 C1.125 5.6875 1.125 5.6875 0 8 C-0.99 7.34 -1.98 6.68 -3 6 C-2.01 4.02 -1.02 2.04 0 0 Z M-8 10 C-6 11 -6 11 -6 11 Z " fill="#E8E8E8" transform="translate(125,120)"/>
<path d="M0 0 C0.33 0.66 0.66 1.32 1 2 C2.65 2 4.3 2 6 2 C6 2.33 6 2.66 6 3 C1.545 3.495 1.545 3.495 -3 4 C-3.33 3.01 -3.66 2.02 -4 1 C-2.68 0.67 -1.36 0.34 0 0 Z " fill="#E8E8E8" transform="translate(164,164)"/>
<path d="M0 0 C-0.33 1.65 -0.66 3.3 -1 5 C-1.99 5.33 -2.98 5.66 -4 6 C-4.33 4.68 -4.66 3.36 -5 2 C-2 0 -2 0 0 0 Z " fill="#141414" transform="translate(145,216)"/>
</svg>
