<?xml version="1.0" encoding="UTF-8"?>
<svg version="1.1" xmlns="http://www.w3.org/2000/svg" width="291" height="320">
<path d="M0 0 C96.03 0 192.06 0 291 0 C291 105.6 291 211.2 291 320 C194.97 320 98.94 320 0 320 C0 214.4 0 108.8 0 0 Z " fill="#10118F" transform="translate(0,0)"/>
<path d="M0 0 C2 2 2 2 2 6 C0.88625 6.474375 -0.2275 6.94875 -1.375 7.4375 C-3.26710994 8.25306463 -5.15712709 9.07856355 -7 10 C-7.46523063 11.89533342 -7.46523063 11.89533342 -7.625 14.0625 C-7.74875 15.361875 -7.8725 16.66125 -8 18 C-6.845 18.4125 -5.69 18.825 -4.5 19.25 C-1.52527987 20.38071067 1.41701203 21.55349714 4.3125 22.875 C4.94800781 23.16117188 5.58351562 23.44734375 6.23828125 23.7421875 C8.76760536 25.5480464 9.65380002 27.17376594 11 30 C11.4609459 33.00431631 11.48827101 35.98387153 11.51171875 39.01953125 C11.52966995 39.87810226 11.54762115 40.73667328 11.56611633 41.6212616 C11.62010741 44.3516251 11.65407874 47.08181492 11.6875 49.8125 C11.720683 51.6686439 11.75517358 53.52476492 11.79101562 55.38085938 C11.87582734 59.92044738 11.94269177 64.45998486 12 69 C12.63808594 68.98839844 13.27617187 68.97679687 13.93359375 68.96484375 C14.75988281 68.95582031 15.58617187 68.94679688 16.4375 68.9375 C17.26121094 68.92589844 18.08492187 68.91429687 18.93359375 68.90234375 C21 69 21 69 22 70 C22.04063832 71.66617115 22.042721 73.33388095 22 75 C15.375 77.875 15.375 77.875 12 79 C11.98541748 79.99854004 11.97083496 80.99708008 11.95581055 82.02587891 C11.89759932 85.74986606 11.82036923 89.47326292 11.73754883 93.19677734 C11.70440637 94.8047524 11.67634146 96.41284081 11.65356445 98.02099609 C11.61982033 100.34000705 11.56749806 102.65798931 11.51171875 104.9765625 C11.50213387 106.04567368 11.50213387 106.04567368 11.49235535 107.13638306 C11.32066475 113.03675687 9.93634322 117.16556958 5.625 121.25 C1.47576739 124.01615508 -1.94963534 125.54598537 -7 125 C-7.66 124.34 -8.32 123.68 -9 123 C-9 121.68 -9 120.36 -9 119 C-7.1128125 118.4121875 -7.1128125 118.4121875 -5.1875 117.8125 C-2.1577058 116.67766542 -1.13372302 116.16823219 0.9375 113.5625 C1.84902441 111.36411759 2.56726243 109.33678289 3 107 C2.21625 106.938125 1.4325 106.87625 0.625 106.8125 C-5.41735975 105.45817799 -11.06892923 103.3057995 -15.10986328 98.48071289 C-17.52795647 94.02776086 -17.6021214 90.64675078 -17.609375 85.6640625 C-17.62591125 84.78471039 -17.64244751 83.90535828 -17.65948486 82.99935913 C-17.70782914 80.20783408 -17.72930535 77.41685324 -17.75 74.625 C-17.77817108 72.72523324 -17.8081001 70.82549168 -17.83984375 68.92578125 C-17.91358434 64.283899 -17.96324173 59.64231645 -18 55 C-18.62648437 55.09539062 -19.25296875 55.19078125 -19.8984375 55.2890625 C-20.71570313 55.39992187 -21.53296875 55.51078125 -22.375 55.625 C-23.18710938 55.74101562 -23.99921875 55.85703125 -24.8359375 55.9765625 C-25.55007812 55.98429687 -26.26421875 55.99203125 -27 56 C-27.66 55.34 -28.32 54.68 -29 54 C-28.87109375 52 -28.87109375 52 -28 50 C-26.22265625 48.875 -26.22265625 48.875 -24.0625 48 C-21.02454593 46.77040208 -21.02454593 46.77040208 -18.89990234 44.38061523 C-17.66869569 41.12356258 -17.72470296 38.2639009 -17.69140625 34.78515625 C-17.66624931 33.36262606 -17.64085124 31.94010011 -17.61523438 30.51757812 C-17.58650436 28.28817824 -17.56246929 26.05885195 -17.54370117 23.8293457 C-17.52197955 21.66840238 -17.48254368 19.50830465 -17.44140625 17.34765625 C-17.42795166 16.05867432 -17.41449707 14.76969238 -17.40063477 13.44165039 C-16.97342084 9.77167188 -16.21982417 7.91721268 -14 5 C-9.39977933 1.54983449 -5.82102839 -0.44777141 0 0 Z " fill="#F9F9FA" transform="translate(149,98)"/>
<path d="M0 0 C0.33 0 0.66 0 1 0 C1.0093457 1.11971191 1.01869141 2.23942383 1.02832031 3.39306641 C1.06832161 7.56436316 1.13410805 11.73493022 1.20751953 15.90576172 C1.23567053 17.70774939 1.25691422 19.50985919 1.27099609 21.31201172 C1.29250755 23.90916198 1.33919757 26.50485295 1.390625 29.1015625 C1.39185364 29.9017984 1.39308228 30.7020343 1.39434814 31.52651978 C1.53030361 36.76885992 2.47478581 39.8778244 6 44 C7.75593321 45.28885694 7.75593321 45.28885694 9.671875 45.8984375 C10.66767578 46.27548828 10.66767578 46.27548828 11.68359375 46.66015625 C12.36550781 46.89605469 13.04742187 47.13195312 13.75 47.375 C14.44738281 47.63410156 15.14476562 47.89320313 15.86328125 48.16015625 C17.5691004 48.79107566 19.28375041 49.39803186 21 50 C20.2734375 56.703125 20.2734375 56.703125 17.8125 59.375 C14.79081505 61.12086241 12.45419117 61.67867989 9 62 C9.66 63.65 10.32 65.3 11 67 C13.31 67 15.62 67 18 67 C17.505 68.485 17.505 68.485 17 70 C15.62714844 69.87431641 15.62714844 69.87431641 14.2265625 69.74609375 C13.03804687 69.64425781 11.84953125 69.54242188 10.625 69.4375 C9.44164062 69.33308594 8.25828125 69.22867188 7.0390625 69.12109375 C4.08101369 68.75846404 4.08101369 68.75846404 2 70 C1.01 69.01 0.02 68.02 -1 67 C2.465 66.01 2.465 66.01 6 65 C6 64.01 6 63.02 6 62 C1.545 62.495 1.545 62.495 -3 63 C-3 62.67 -3 62.34 -3 62 C-5.31 61.67 -7.62 61.34 -10 61 C-9.67 60.01 -9.34 59.02 -9 58 C-9.66 57.67 -10.32 57.34 -11 57 C-10.67 56.01 -10.34 55.02 -10 54 C-11.2065625 53.814375 -11.2065625 53.814375 -12.4375 53.625 C-13.283125 53.41875 -14.12875 53.2125 -15 53 C-15.33 52.34 -15.66 51.68 -16 51 C-16.99 50.67 -17.98 50.34 -19 50 C-20.5291123 45.91286349 -20.16214474 41.49091178 -20.16796875 37.18359375 C-20.17129715 36.33072281 -20.17462555 35.47785187 -20.17805481 34.59913635 C-20.18310915 32.7995762 -20.1854636 31.0000067 -20.18530273 29.20043945 C-20.18749482 26.44401743 -20.20568143 23.68799217 -20.22460938 20.93164062 C-20.22754246 19.18229304 -20.22952782 17.43294355 -20.23046875 15.68359375 C-20.23765427 14.85854843 -20.24483978 14.03350311 -20.25224304 13.18345642 C-20.23656308 9.27103731 -20.21971981 7.32957971 -18 4 C-14.875 3.8125 -14.875 3.8125 -12 4 C-12 4.66 -12 5.32 -12 6 C-11.34 6 -10.68 6 -10 6 C-8.18988551 9.90286089 -7.70784058 13.10760624 -7.5859375 17.39453125 C-7.54726562 18.59658203 -7.50859375 19.79863281 -7.46875 21.03710938 C-7.4378125 22.28298828 -7.406875 23.52886719 -7.375 24.8125 C-7.33632812 26.07771484 -7.29765625 27.34292969 -7.2578125 28.64648438 C-7.16369343 31.76417851 -7.07805639 34.88186914 -7 38 C-6.95101562 36.85402344 -6.90203125 35.70804688 -6.8515625 34.52734375 C-6.77647199 32.99737465 -6.70092694 31.46742782 -6.625 29.9375 C-6.5940625 29.18533203 -6.563125 28.43316406 -6.53125 27.65820312 C-6.27941541 22.81038719 -5.50831635 18.61691957 -4 14 C-2.68 13.67 -1.36 13.34 0 13 C0 8.71 0 4.42 0 0 Z " fill="#181974" transform="translate(131,155)"/>
<path d="M0 0 C5.6484375 -0.234375 5.6484375 -0.234375 8.8125 1.875 C11.50222191 4.48787271 11.96025064 5.24556211 12.15771484 8.9934082 C12.17527832 10.24984131 12.1928418 11.50627441 12.2109375 12.80078125 C12.2390144 14.18425645 12.26767892 15.56771984 12.296875 16.95117188 C12.33806592 19.13012252 12.37495582 21.30885441 12.40136719 23.48803711 C12.42908276 25.59274835 12.47495854 27.69645923 12.5234375 29.80078125 C12.54325684 31.06059814 12.56307617 32.32041504 12.58349609 33.6184082 C13.02957292 37.24010228 13.80327146 39.11772392 16 42 C16.99 42.66 17.98 43.32 19 44 C19 44.99 19 45.98 19 47 C17.37064759 48.37868281 15.70250393 49.71274093 14 51 C12.17552841 54.64894317 12.62744513 59.18787258 12.48242188 63.234375 C12.21395614 68.78604386 12.21395614 68.78604386 10 71 C6.5625 70.9375 6.5625 70.9375 3 70 C-0.15838559 66.07091221 -0.34909802 62.9191406 -0.30078125 57.9765625 C-0.308424 56.61197432 -0.31691402 55.24739068 -0.32617188 53.8828125 C-0.3239658 51.75419467 -0.31251936 49.62649242 -0.28491211 47.49804688 C0.15199552 37.9273066 0.15199552 37.9273066 -4.10546875 29.7734375 C-4.6677417 29.31114746 -5.23001465 28.84885742 -5.80932617 28.37255859 C-6.20224854 27.91961426 -6.5951709 27.46666992 -7 27 C-6.63406347 23.14546859 -4.70304021 21.6185702 -2 19 C-0.76240177 15.28720531 -0.64391103 11.68693654 -0.4375 7.8125 C-0.37272461 6.68811523 -0.37272461 6.68811523 -0.30664062 5.54101562 C-0.20077315 3.69421625 -0.0999024 1.84713166 0 0 Z " fill="#101080" transform="translate(140,125)"/>
<path d="M0 0 C0.66 0.33 1.32 0.66 2 1 C1.01 2.485 1.01 2.485 0 4 C0.33 4.99 0.66 5.98 1 7 C2.65 7.33 4.3 7.66 6 8 C6.33 7.34 6.66 6.68 7 6 C8.32 6 9.64 6 11 6 C11 4.68 11 3.36 11 2 C11.66 2.33 12.32 2.66 13 3 C13 3.99 13 4.98 13 6 C13.55429688 6.25394531 14.10859375 6.50789063 14.6796875 6.76953125 C15.40414062 7.11371094 16.12859375 7.45789063 16.875 7.8125 C17.59429687 8.14894531 18.31359375 8.48539063 19.0546875 8.83203125 C21 10 21 10 23 13 C23.27124023 15.99926758 23.27124023 15.99926758 23.30859375 19.64453125 C23.33373047 20.96130859 23.35886719 22.27808594 23.38476562 23.63476562 C23.41343052 25.72142321 23.43745943 27.80800578 23.45629883 29.89477539 C23.47809345 31.91592751 23.5175482 33.93619131 23.55859375 35.95703125 C23.57204834 37.16335205 23.58550293 38.36967285 23.59936523 39.61254883 C24.04406259 43.37255849 24.97993163 45.80871387 27 49 C27.99 49.33 28.98 49.66 30 50 C30.33 50.99 30.66 51.98 31 53 C29.68 53.66 28.36 54.32 27 55 C26.67 54.34 26.34 53.68 26 53 C25.34 53.66 24.68 54.32 24 55 C24.64582031 55.22945312 25.29164063 55.45890625 25.95703125 55.6953125 C28 57 28 57 28.57421875 59.2421875 C28.63029297 60.54542969 28.63029297 60.54542969 28.6875 61.875 C28.85955607 65.16864468 29.18774067 67.75096267 30 71 C27.03 71 24.06 71 21 71 C20.71125 71.94875 20.4225 72.8975 20.125 73.875 C19 77 19 77 17 79 C16.64309233 82.1070507 16.64309233 82.1070507 16.62109375 85.765625 C16.60409927 86.43664246 16.5871048 87.10765991 16.56959534 87.79901123 C16.51641823 89.94924439 16.47620296 92.0994615 16.4375 94.25 C16.39336865 96.38615028 16.34639589 98.5221614 16.29469299 100.65814209 C16.24837999 102.60692349 16.21075623 104.55590563 16.17358398 106.50488281 C16.01246697 109.74897728 15.60720507 112.81255575 15 116 C13.02 115.67 11.04 115.34 9 115 C9.639375 114.071875 10.27875 113.14375 10.9375 112.1875 C13.96550803 107.50785122 14.12011606 104.36895392 14.140625 98.8828125 C14.15895192 97.45701526 14.17852213 96.03123356 14.19921875 94.60546875 C14.22817805 92.36480415 14.24999997 90.12514126 14.25048828 87.88427734 C14.25383183 85.71622542 14.28842176 83.55046488 14.328125 81.3828125 C14.3374707 80.08746582 14.34681641 78.79211914 14.35644531 77.45751953 C15.15899342 73.14580245 16.58880159 71.67433455 20 69 C23.3125 68.1875 23.3125 68.1875 26 68 C25.67 66.35 25.34 64.7 25 63 C24.36191406 63.01160156 23.72382813 63.02320313 23.06640625 63.03515625 C22.24011719 63.04417969 21.41382813 63.05320313 20.5625 63.0625 C19.32693359 63.07990234 19.32693359 63.07990234 18.06640625 63.09765625 C16 63 16 63 15 62 C14.87676261 59.17584161 14.81385123 56.3723799 14.7890625 53.546875 C14.76098375 51.79556373 14.73231922 50.04426178 14.703125 48.29296875 C14.66191567 45.52360391 14.62504206 42.754411 14.59863281 39.98486328 C14.57097368 37.31766471 14.52508962 34.65126472 14.4765625 31.984375 C14.47330963 31.16024109 14.47005676 30.33610718 14.46670532 29.48699951 C14.36818377 24.8649312 14.01771209 21.73910277 11 18 C8.48157365 16.65731016 8.48157365 16.65731016 5.625 15.875 C1.7003327 14.65327161 -1.53646491 13.22925713 -5 11 C-4.50769231 3.49230769 -4.50769231 3.49230769 -1.9375 1 C-1.298125 0.67 -0.65875 0.34 0 0 Z " fill="#121288" transform="translate(145,105)"/>
<path d="M0 0 C6.30380635 0.49441618 11.0042314 1.78847263 15.3125 6.5625 C18.22537911 10.76999205 18.16076441 14.00950927 18.16796875 19 C18.17129715 19.79148437 18.17462555 20.58296875 18.17805481 21.3984375 C18.1831204 23.07291075 18.18546325 24.7473941 18.18530273 26.421875 C18.18749127 28.98975135 18.20565609 31.55719959 18.22460938 34.125 C18.22754291 35.74999853 18.22952797 37.3749991 18.23046875 39 C18.23765427 39.77085937 18.24483978 40.54171875 18.25224304 41.3359375 C18.2288272 46.7711728 18.2288272 46.7711728 16 49 C14.0625 49 14.0625 49 12 48 C9.27356802 43.54369109 8.63203832 40.17541912 8.62890625 34.9921875 C8.61150391 33.67605469 8.59410156 32.35992187 8.57617188 31.00390625 C8.5660778 28.93240408 8.56251141 26.86107662 8.56420898 24.78955078 C8.56063725 22.77366597 8.5325887 20.75787142 8.50390625 18.7421875 C8.50205322 17.5444873 8.5002002 16.34678711 8.49829102 15.11279297 C7.90085608 11.38065411 6.94413417 10.28844785 4 8 C2.03120677 6.93988057 0.03564133 5.92529151 -2 5 C-1.125 1.125 -1.125 1.125 0 0 Z " fill="#EEEFF9" transform="translate(159,106)"/>
<path d="M0 0 C2.4375 0.25 2.4375 0.25 5 1 C7.44346476 4.66519714 7.26554778 6.52913055 7.30859375 10.8984375 C7.33375716 12.27864999 7.35915513 13.65885823 7.38476562 15.0390625 C7.41347217 17.20701968 7.43749916 19.37490281 7.45629883 21.54296875 C7.47803406 23.64101543 7.51747904 25.73819391 7.55859375 27.8359375 C7.57204834 29.08938965 7.58550293 30.3428418 7.59936523 31.63427734 C8.02767653 35.23250983 8.84503855 37.12134766 11 40 C12.9937797 41.41455894 12.9937797 41.41455894 15.1875 42.3125 C16.26064453 42.80169922 16.26064453 42.80169922 17.35546875 43.30078125 C17.89816406 43.53152344 18.44085938 43.76226562 19 44 C18.67 45.32 18.34 46.64 18 48 C12.6930484 49.3267379 9.78245615 48.89525852 4.89453125 46.49609375 C1.73661853 44.00231938 -0.63404933 41.04875756 -1.35700989 37.001297 C-1.47747991 34.70318856 -1.47631564 32.43742159 -1.42578125 30.13671875 C-1.42249313 29.3041304 -1.41920502 28.47154205 -1.41581726 27.61372375 C-1.40544005 25.86471669 -1.38556457 24.11574284 -1.35668945 22.36694336 C-1.31235459 19.67868305 -1.29521119 16.99131616 -1.28320312 14.30273438 C-1.26978907 12.60154948 -1.25486887 10.90037566 -1.23828125 9.19921875 C-1.23089432 8.39199875 -1.22350739 7.58477875 -1.21589661 6.75309753 C-1.11833979 1.11833979 -1.11833979 1.11833979 0 0 Z " fill="#F7F8FA" transform="translate(114,161)"/>
<path d="M0 0 C0.33 0 0.66 0 1 0 C1.0093457 1.11971191 1.01869141 2.23942383 1.02832031 3.39306641 C1.06832161 7.56436316 1.13410805 11.73493022 1.20751953 15.90576172 C1.23567053 17.70774939 1.25691422 19.50985919 1.27099609 21.31201172 C1.29250755 23.90916198 1.33919757 26.50485295 1.390625 29.1015625 C1.39185364 29.9017984 1.39308228 30.7020343 1.39434814 31.52651978 C1.55736415 37.81229385 3.49172476 41.49172476 8 46 C6.02 45.67 4.04 45.34 2 45 C2 44.34 2 43.68 2 43 C0.515 42.505 0.515 42.505 -1 42 C-1.66 41.01 -2.32 40.02 -3 39 C-3.66 39.99 -4.32 40.98 -5 42 C-3.694761 44.61047801 -2.64173426 44.68066423 0.0625 45.625 C0.79597656 45.88539063 1.52945313 46.14578125 2.28515625 46.4140625 C3.13400391 46.70410156 3.13400391 46.70410156 4 47 C4 47.66 4 48.32 4 49 C5.32 49.33 6.64 49.66 8 50 C2.94895808 51.51531258 0.28176596 50.55525301 -4.16796875 48.203125 C-7.346126 46.11597695 -8.78299602 44.65101195 -10 41 C-10.12835265 38.67918192 -10.20209754 36.35519821 -10.24609375 34.03125 C-10.27901992 32.64192049 -10.31223177 31.25259773 -10.34570312 29.86328125 C-10.39317479 27.67761681 -10.43764365 25.4919821 -10.47680664 23.30615234 C-10.51651279 21.19340454 -10.5680436 19.08119894 -10.62109375 16.96875 C-10.6461499 15.70482422 -10.67120605 14.44089844 -10.69702148 13.13867188 C-10.76622029 9.83913381 -10.76622029 9.83913381 -13 7 C-14.32 7 -15.64 7 -17 7 C-17.33 18.22 -17.66 29.44 -18 41 C-18.33 41 -18.66 41 -19 41 C-19.0246826 36.05208706 -19.04285166 31.1042098 -19.05493164 26.15625 C-19.05996653 24.47232438 -19.06679481 22.78840314 -19.07543945 21.10449219 C-19.08754196 18.68683797 -19.09323668 16.26924144 -19.09765625 13.8515625 C-19.10281754 13.0963028 -19.10797882 12.34104309 -19.11329651 11.56289673 C-19.11387171 6.22774341 -19.11387171 6.22774341 -18 4 C-16.02 4 -14.04 4 -12 4 C-12 4.66 -12 5.32 -12 6 C-11.34 6 -10.68 6 -10 6 C-8.18988551 9.90286089 -7.70784058 13.10760624 -7.5859375 17.39453125 C-7.54726562 18.59658203 -7.50859375 19.79863281 -7.46875 21.03710938 C-7.4378125 22.28298828 -7.406875 23.52886719 -7.375 24.8125 C-7.33632812 26.07771484 -7.29765625 27.34292969 -7.2578125 28.64648438 C-7.16369343 31.76417851 -7.07805639 34.88186914 -7 38 C-6.95101562 36.85402344 -6.90203125 35.70804688 -6.8515625 34.52734375 C-6.77647199 32.99737465 -6.70092694 31.46742782 -6.625 29.9375 C-6.5940625 29.18533203 -6.563125 28.43316406 -6.53125 27.65820312 C-6.27941541 22.81038719 -5.50831635 18.61691957 -4 14 C-2.68 13.67 -1.36 13.34 0 13 C0 8.71 0 4.42 0 0 Z " fill="#20227E" transform="translate(131,155)"/>
<path d="M0 0 C1.58025005 0.21192095 3.16398461 0.39923371 4.75 0.5625 C5.54921875 0.64628906 6.3484375 0.73007813 7.171875 0.81640625 C8.07679688 0.90728516 8.07679688 0.90728516 9 1 C7.25 4.875 7.25 4.875 5 6 C4.5875 6.804375 4.175 7.60875 3.75 8.4375 C1.49860032 11.73419239 -0.2506692 11.82373936 -4 13 C-5.02960781 13.88328112 -6.02936562 14.80229399 -7 15.75 C-8.485 16.86375 -8.485 16.86375 -10 18 C-14.93023256 17.06976744 -14.93023256 17.06976744 -17 15 C-17.14115161 12.32941149 -17.04247107 9.67567762 -17 7 C-15.68 6.67 -14.36 6.34 -13 6 C-13 5.34 -13 4.68 -13 4 C-12.34 3.67 -11.68 3.34 -11 3 C-10.67 2.01 -10.34 1.02 -10 0 C-6.21462152 -0.77428196 -3.6907672 -0.9915494 0 0 Z " fill="#201F73" transform="translate(183,185)"/>
<path d="M0 0 C0.66 0.33 1.32 0.66 2 1 C2 2.65 2 4.3 2 6 C5.53684659 6.80842208 8.27840527 7 12 7 C12 11.95 12 16.9 12 22 C10.02 22.99 10.02 22.99 8 24 C6.6700598 28.78197076 6.69329651 33.92680526 6.4375 38.875 C6.39431641 39.65875 6.35113281 40.4425 6.30664062 41.25 C6.20146649 43.16650649 6.10032075 45.08323333 6 47 C5.01 47.495 5.01 47.495 4 48 C3.97494385 47.17798096 3.9498877 46.35596191 3.92407227 45.5090332 C3.80787345 41.77670626 3.68525495 38.04461683 3.5625 34.3125 C3.52318359 33.01892578 3.48386719 31.72535156 3.44335938 30.39257812 C3.38051758 28.52182617 3.38051758 28.52182617 3.31640625 26.61328125 C3.27974854 25.46641846 3.24309082 24.31955566 3.20532227 23.13793945 C3.02159702 20.33006722 2.6300618 17.73774186 2 15 C1.34 15 0.68 15 0 15 C0 14.34 0 13.68 0 13 C-1.32 12.67 -2.64 12.34 -4 12 C-3.34 12 -2.68 12 -2 12 C-1.93941406 11.21753906 -1.87882812 10.43507812 -1.81640625 9.62890625 C-1.73261719 8.61699219 -1.64882812 7.60507813 -1.5625 6.5625 C-1.48128906 5.55316406 -1.40007812 4.54382813 -1.31640625 3.50390625 C-1 1 -1 1 0 0 Z " fill="#0F107B" transform="translate(119,146)"/>
<path d="M0 0 C0.33 0 0.66 0 1 0 C1.01458252 0.91289795 1.02916504 1.8257959 1.04418945 2.76635742 C1.10540795 6.16798611 1.17958873 9.56882681 1.26245117 12.9699707 C1.29561259 14.43926422 1.32367178 15.90868244 1.34643555 17.37817383 C1.38014519 19.49614368 1.43246433 21.61297995 1.48828125 23.73046875 C1.51446533 25.00301514 1.54064941 26.27556152 1.56762695 27.58666992 C2.02766765 31.21841975 2.79552818 33.10957691 5 36 C5.99 36.66 6.98 37.32 8 38 C8 38.99 8 39.98 8 41 C6.37064759 42.37868281 4.70250393 43.71274093 3 45 C1.414131 48.171738 1.62133555 51.63513822 1.4375 55.125 C1.39431641 55.87910156 1.35113281 56.63320312 1.30664062 57.41015625 C1.2005168 59.27321888 1.09974999 61.13658524 1 63 C0.67 63 0.34 63 0 63 C0 57.06 0 51.12 0 45 C-0.99 45 -1.98 45 -3 45 C-3.33 45.99 -3.66 46.98 -4 48 C-4.495 46.515 -4.495 46.515 -5 45 C-5.66 45 -6.32 45 -7 45 C-7.66 45.66 -8.32 46.32 -9 47 C-9.86027226 37.32671635 -9.86027226 37.32671635 -6.6875 33.375 C-4 31 -4 31 -1 31 C-0.67 20.77 -0.34 10.54 0 0 Z " fill="#232384" transform="translate(151,131)"/>
<path d="M0 0 C2.5 0.25 2.5 0.25 4.5 2.25 C4.2556566 8.60292829 2.31111983 12.63068365 -2.33203125 16.95703125 C-5.65650749 19.67127858 -7.65955499 21.15995232 -12 21.625 C-12.825 21.50125 -13.65 21.3775 -14.5 21.25 C-14.83 19.6 -15.16 17.95 -15.5 16.25 C-12.82521756 14.5872974 -10.5004856 13.25016187 -7.5 12.25 C-5.25094049 9.34622069 -5.25094049 9.34622069 -5 5.6875 C-4.42689671 1.7474149 -4.0850946 0.40850946 0 0 Z " fill="#EDECF5" transform="translate(122.5,111.75)"/>
<path d="M0 0 C1.98 0 3.96 0 6 0 C6 0.66 6 1.32 6 2 C6.66 2 7.32 2 8 2 C9.9442359 6.08020441 10.23494474 9.3337717 10.1953125 13.83203125 C10.18886719 15.12431641 10.18242188 16.41660156 10.17578125 17.74804688 C10.15907327 19.1028673 10.14214342 20.45768501 10.125 21.8125 C10.11496003 23.18684251 10.10583596 24.56119203 10.09765625 25.93554688 C10.07411242 29.29054317 10.04122567 32.64518199 10 36 C10.66 36.33 11.32 36.66 12 37 C12.66 37.99 13.32 38.98 14 40 C15.94832935 41.00168531 15.94832935 41.00168531 18.125 41.6875 C19.21167969 42.06455078 19.21167969 42.06455078 20.3203125 42.44921875 C20.87460938 42.63097656 21.42890625 42.81273437 22 43 C22 43.66 22 44.32 22 45 C23.32 45.33 24.64 45.66 26 46 C20.94895808 47.51531258 18.28176596 46.55525301 13.83203125 44.203125 C10.653874 42.11597695 9.21700398 40.65101195 8 37 C7.87164735 34.67918192 7.79790246 32.35519821 7.75390625 30.03125 C7.72098008 28.64192049 7.68776823 27.25259773 7.65429688 25.86328125 C7.60682521 23.67761681 7.56235635 21.4919821 7.52319336 19.30615234 C7.48348721 17.19340454 7.4319564 15.08119894 7.37890625 12.96875 C7.3538501 11.70482422 7.32879395 10.44089844 7.30297852 9.13867188 C7.23377971 5.83913381 7.23377971 5.83913381 5 3 C3.68 3 2.36 3 1 3 C0.67 14.22 0.34 25.44 0 37 C-0.33 37 -0.66 37 -1 37 C-1.0246826 32.05208706 -1.04285166 27.1042098 -1.05493164 22.15625 C-1.05996653 20.47232438 -1.06679481 18.78840314 -1.07543945 17.10449219 C-1.08754196 14.68683797 -1.09323668 12.26924144 -1.09765625 9.8515625 C-1.10281754 9.0963028 -1.10797882 8.34104309 -1.11329651 7.56289673 C-1.11387171 2.22774341 -1.11387171 2.22774341 0 0 Z " fill="#29276A" transform="translate(113,159)"/>
<path d="M0 0 C0.99 0 1.98 0 3 0 C4.5625 2.375 4.5625 2.375 6 5 C6.66 5.66 7.32 6.32 8 7 C8.99 7 9.98 7 11 7 C12.34400833 7.98560611 13.67607028 8.98758315 15 10 C16.64797236 10.71162443 18.31165408 11.39031953 20 12 C19.67 13.32 19.34 14.64 19 16 C13.68004932 17.32998767 10.59978695 17.01786464 5.80078125 14.296875 C2.92988387 12.22933068 1.49961803 10.18668832 0 7 C-0.25 3.125 -0.25 3.125 0 0 Z " fill="#EAECF5" transform="translate(113,193)"/>
<path d="M0 0 C6.38180901 0.50053404 11.06551131 1.81097333 15.375 6.6875 C15.91125 7.450625 16.4475 8.21375 17 9 C16.38125 9.144375 15.7625 9.28875 15.125 9.4375 C12.96741678 9.93152225 12.96741678 9.93152225 11 11 C10.67 21.23 10.34 31.46 10 42 C9.67 42 9.34 42 9 42 C8.9906543 41.1121582 8.98130859 40.22431641 8.97167969 39.30957031 C8.92759319 36.00654081 8.86595254 32.70479993 8.79248047 29.40234375 C8.76430389 27.97473063 8.74307273 26.54696247 8.72900391 25.11914062 C8.70752608 23.06299668 8.66086026 21.00870998 8.609375 18.953125 C8.58842773 17.71723633 8.56748047 16.48134766 8.54589844 15.20800781 C7.9032056 11.43118141 6.98926623 10.31240035 4 8 C2.03120677 6.93988057 0.03564133 5.92529151 -2 5 C-1.125 1.125 -1.125 1.125 0 0 Z " fill="#D2D4E8" transform="translate(159,106)"/>
<path d="M0 0 C2 2 2 2 2 6 C0.88625 6.474375 -0.2275 6.94875 -1.375 7.4375 C-3.26710994 8.25306463 -5.15712709 9.07856355 -7 10 C-7.68472665 11.88764903 -7.68472665 11.88764903 -8.125 14.0625 C-8.37636719 15.16271484 -8.37636719 15.16271484 -8.6328125 16.28515625 C-8.75398437 16.85105469 -8.87515625 17.41695312 -9 18 C-9.66 18 -10.32 18 -11 18 C-11.33 15.36 -11.66 12.72 -12 10 C-13.65 10.66 -15.3 11.32 -17 12 C-15.75749216 7.02996862 -14.2997891 4.79986267 -10 2 C-6.5614588 0.2807294 -3.84583144 -0.41576556 0 0 Z " fill="#EFF0F7" transform="translate(149,98)"/>
<path d="M0 0 C3.29714793 0.32971479 4.6226839 0.6226839 7 3 C7.56520003 5.65537372 7.73788198 8.29144713 8 11 C5.03 11 2.06 11 -1 11 C-1.28875 11.94875 -1.5775 12.8975 -1.875 13.875 C-3 17 -3 17 -5 19 C-5.35690767 22.1070507 -5.35690767 22.1070507 -5.37890625 25.765625 C-5.39590073 26.43664246 -5.4128952 27.10765991 -5.43040466 27.79901123 C-5.48358177 29.94924439 -5.52379704 32.0994615 -5.5625 34.25 C-5.60663135 36.38615028 -5.65360411 38.5221614 -5.70530701 40.65814209 C-5.75162001 42.60692349 -5.78924377 44.55590563 -5.82641602 46.50488281 C-5.98753303 49.74897728 -6.39279493 52.81255575 -7 56 C-8.98 55.67 -10.96 55.34 -13 55 C-12.360625 54.071875 -11.72125 53.14375 -11.0625 52.1875 C-8.03449197 47.50785122 -7.87988394 44.36895392 -7.859375 38.8828125 C-7.84104808 37.45701526 -7.82147787 36.03123356 -7.80078125 34.60546875 C-7.77182195 32.36480415 -7.75000003 30.12514126 -7.74951172 27.88427734 C-7.74616817 25.71622542 -7.71157824 23.55046488 -7.671875 21.3828125 C-7.6625293 20.08746582 -7.65318359 18.79211914 -7.64355469 17.45751953 C-6.84100658 13.14580245 -5.41119841 11.67433455 -2 9 C1.3125 8.1875 1.3125 8.1875 4 8 C3.67 6.35 3.34 4.7 3 3 C1.35 2.67 -0.3 2.34 -2 2 C-1.34 1.34 -0.68 0.68 0 0 Z " fill="#16166E" transform="translate(167,165)"/>
<path d="M0 0 C2.6321306 0.89936125 5.25436301 1.81821796 7.875 2.75 C8.99455078 3.12898438 8.99455078 3.12898438 10.13671875 3.515625 C15.66252929 5.50690808 15.66252929 5.50690808 17.5078125 8.203125 C17.67023438 8.79609375 17.83265625 9.3890625 18 10 C15.03 9.505 15.03 9.505 12 9 C12.33 10.98 12.66 12.96 13 15 C12.34 15 11.68 15 11 15 C9.88625 13.7934375 9.88625 13.7934375 8.75 12.5625 C5.87625052 9.41186253 5.87625052 9.41186253 0 9 C0 14.28 0 19.56 0 25 C-0.33 25 -0.66 25 -1 25 C-1.22314035 22.29216168 -1.42889462 19.58481976 -1.625 16.875 C-1.68945312 16.11445313 -1.75390625 15.35390625 -1.8203125 14.5703125 C-2.14523617 9.85891936 -1.7783873 6.46633146 0 2 C0 1.34 0 0.68 0 0 Z " fill="#EDEFF8" transform="translate(140,116)"/>
<path d="M0 0 C1.74627478 2.61941217 2.38722388 4.03824877 3 7 C-6.8766421 12.75040051 -6.8766421 12.75040051 -12 14 C-12.66 13.67 -13.32 13.34 -14 13 C-14.33 13.66 -14.66 14.32 -15 15 C-16.65 14.67 -18.3 14.34 -20 14 C-21 7.375 -21 7.375 -21 4 C-14.71428571 1.57142857 -14.71428571 1.57142857 -11 3 C-12.98 3.99 -14.96 4.98 -17 6 C-17 7.32 -17 8.64 -17 10 C-12.58623123 10.66206532 -10.29907095 9.81498196 -6.8125 7.25 C-4.05059294 5.09277081 -2.01370572 2.8678162 0 0 Z " fill="#0F1073" transform="translate(125,122)"/>
<path d="M0 0 C0.33 1.65 0.66 3.3 1 5 C-1.36210866 6.44351085 -3.667828 7.84814994 -6.1875 9 C-8.33477942 10.00322742 -8.33477942 10.00322742 -10 13 C-11.65 12.67 -13.3 12.34 -15 12 C-15.33 10.68 -15.66 9.36 -16 8 C-14.47392422 6.6488499 -12.92837144 5.31967839 -11.375 4 C-10.51648438 3.2575 -9.65796875 2.515 -8.7734375 1.75 C-5.55520973 -0.2806564 -3.73399034 -0.35040379 0 0 Z " fill="#EDEEF8" transform="translate(184,186)"/>
<path d="M0 0 C0.66 0 1.32 0 2 0 C1.67 1.32 1.34 2.64 1 4 C3.97 4.495 3.97 4.495 7 5 C5.19536728 9.36119575 2.74310674 11.15079415 -1.4375 13.1875 C-4.15964956 14.05062059 -6.16446769 14.30654403 -9 14 C-9.66 13.34 -10.32 12.68 -11 12 C-11 10.68 -11 9.36 -11 8 C-9.741875 7.608125 -8.48375 7.21625 -7.1875 6.8125 C-3.22841724 5.36013807 -1.87001933 3.84392862 0 0 Z " fill="#ECEDF5" transform="translate(151,209)"/>
<path d="M0 0 C0.66386719 0.0721875 1.32773438 0.144375 2.01171875 0.21875 C3.33623047 0.35796875 3.33623047 0.35796875 4.6875 0.5 C5.99267578 0.63921875 5.99267578 0.63921875 7.32421875 0.78125 C10.01266019 1.04266112 10.01266019 1.04266112 12.76953125 0.96875 C15 1 15 1 16 2 C16.04063832 3.66617115 16.042721 5.33388095 16 7 C14.88625 7.474375 13.7725 7.94875 12.625 8.4375 C10.73289006 9.25306463 8.84287291 10.07856355 7 11 C6.67 10.01 6.34 9.02 6 8 C2.88214887 8.64644661 2.88214887 8.64644661 2 11 C1.34 10.01 0.68 9.02 0 8 C1.32 7.34 2.64 6.68 4 6 C3.0022242 3.00667261 2.2477975 2.05233685 0 0 Z " fill="#EBEEF9" transform="translate(155,166)"/>
<path d="M0 0 C1.70884005 1.62339805 3.37446717 3.29319053 5 5 C5 5.66 5 6.32 5 7 C7.64 7.33 10.28 7.66 13 8 C13.33 8.99 13.66 9.98 14 11 C13.67 11.66 13.34 12.32 13 13 C13.66 13.33 14.32 13.66 15 14 C11.42355152 15.2380014 8.66305234 14.74926071 5 14 C5.66 12.35 6.32 10.7 7 9 C6.319375 8.9175 5.63875 8.835 4.9375 8.75 C1.1253093 7.77667472 -1.64070329 6.04192545 -5 4 C-4.34 3.67 -3.68 3.34 -3 3 C-2.67 2.34 -2.34 1.68 -2 1 C-1.34 0.67 -0.68 0.34 0 0 Z " fill="#13127E" transform="translate(128,193)"/>
<path d="M0 0 C0.33 0 0.66 0 1 0 C1.06058594 1.18078125 1.12117187 2.3615625 1.18359375 3.578125 C1.26802582 5.1354277 1.35267249 6.69271879 1.4375 8.25 C1.47681641 9.02730469 1.51613281 9.80460938 1.55664062 10.60546875 C1.61948242 11.73662109 1.61948242 11.73662109 1.68359375 12.890625 C1.72025146 13.58188477 1.75690918 14.27314453 1.79467773 14.98535156 C1.93622276 17.03714778 1.93622276 17.03714778 2.64477539 19.06933594 C3 21 3 21 1 24 C1 22.68 1 21.36 1 20 C0.34 20 -0.32 20 -1 20 C-0.835 21.27875 -0.67 22.5575 -0.5 23.875 C-0.23273927 25.94627065 0 27.91103575 0 30 C-0.99 30.33 -1.98 30.66 -3 31 C-5.0625 29.25 -5.0625 29.25 -7 27 C-7 24.01227779 -6.07911366 23.08158596 -4 20.9375 C-3.34 20.298125 -2.68 19.65875 -2 19 C-0.76240177 15.28720531 -0.64391103 11.68693654 -0.4375 7.8125 C-0.37272461 6.68811523 -0.37272461 6.68811523 -0.30664062 5.54101562 C-0.20077315 3.69421625 -0.0999024 1.84713166 0 0 Z " fill="#1F197C" transform="translate(140,125)"/>
<path d="M0 0 C0.66 0.33 1.32 0.66 2 1 C2 2.65 2 4.3 2 6 C5.40562852 6.77842938 8.50765756 7.09978121 12 7 C12 7.66 12 8.32 12 9 C11.38125 9.144375 10.7625 9.28875 10.125 9.4375 C7.96741678 9.93152225 7.96741678 9.93152225 6 11 C6.33 11.99 6.66 12.98 7 14 C6.34 14 5.68 14 5 14 C5 13.34 5 12.68 5 12 C1.9254644 12.7763932 1.9254644 12.7763932 0 15 C0 14.34 0 13.68 0 13 C-1.32 12.67 -2.64 12.34 -4 12 C-3.34 12 -2.68 12 -2 12 C-1.93941406 11.21753906 -1.87882812 10.43507812 -1.81640625 9.62890625 C-1.73261719 8.61699219 -1.64882812 7.60507813 -1.5625 6.5625 C-1.48128906 5.55316406 -1.40007812 4.54382813 -1.31640625 3.50390625 C-1 1 -1 1 0 0 Z " fill="#0F1075" transform="translate(119,146)"/>
<path d="M0 0 C0.99 0.66 1.98 1.32 3 2 C2.34 4.97 1.68 7.94 1 11 C-2.3 11.33 -5.6 11.66 -9 12 C-8.67 10.35 -8.34 8.7 -8 7 C-5.69 6.34 -3.38 5.68 -1 5 C-0.67 3.35 -0.34 1.7 0 0 Z " fill="#0B0A88" transform="translate(113,113)"/>
<path d="M0 0 C1.98 0.99 1.98 0.99 4 2 C3.34 2 2.68 2 2 2 C2.16371094 3.11375 2.32742187 4.2275 2.49609375 5.375 C3.10669314 10.25979515 3.11158497 15.08395145 3.0625 20 C3.05798828 20.87011719 3.05347656 21.74023438 3.04882812 22.63671875 C3.0371736 24.75784293 3.01924357 26.8789311 3 29 C3.66 29.33 4.32 29.66 5 30 C5 31.32 5 32.64 5 34 C6.65 34.33 8.3 34.66 10 35 C10 35.66 10 36.32 10 37 C7 38 7 38 4 37 C0.80395258 32.95651219 0.58909691 29.57266489 0.48828125 24.51171875 C0.47033005 23.80852005 0.45237885 23.10532135 0.43388367 22.3808136 C0.3799952 20.14976883 0.34595588 17.9189353 0.3125 15.6875 C0.27930776 14.16859053 0.24481633 12.64970886 0.20898438 11.13085938 C0.12428305 7.42077584 0.05736926 3.7106183 0 0 Z " fill="#1C1D70" transform="translate(139,158)"/>
<path d="M0 0 C4.875 2.75 4.875 2.75 6 5 C6.14307824 7.19134648 6.22649418 9.38670153 6.28125 11.58203125 C6.29965942 12.23322433 6.31806885 12.88441742 6.33703613 13.55534363 C6.39580683 15.64097018 6.44856949 17.72668033 6.5 19.8125 C6.56797506 22.54833739 6.64175323 25.2839347 6.71875 28.01953125 C6.74904297 29.23745361 6.77933594 30.45537598 6.81054688 31.71020508 C6.97599193 34.58310736 7.34634731 37.20378231 8 40 C6.68 40 5.36 40 4 40 C4.00523682 39.05680908 4.01047363 38.11361816 4.01586914 37.1418457 C4.03295311 33.62881861 4.04547066 30.11583593 4.05493164 26.6027832 C4.05994766 25.08487245 4.06676203 23.5669665 4.07543945 22.04907227 C4.08762497 19.86212984 4.09325572 17.67525154 4.09765625 15.48828125 C4.10289307 14.17384033 4.10812988 12.85939941 4.11352539 11.50512695 C4.01677552 8.51794875 3.70343764 5.89407389 3 3 C2.01 2.67 1.02 2.34 0 2 C0 1.34 0 0.68 0 0 Z " fill="#191777" transform="translate(162,113)"/>
<path d="M0 0 C1.5 1.375 1.5 1.375 3 3 C3 3.66 3 4.32 3 5 C5.97 5.495 5.97 5.495 9 6 C8.01 6.495 8.01 6.495 7 7 C6.34786708 9.02463255 6.34786708 9.02463255 6 11 C8.97 11.495 8.97 11.495 12 12 C11.67 12.99 11.34 13.98 11 15 C9.37433394 14.52309796 7.74948689 14.04340334 6.125 13.5625 C5.22007812 13.29566406 4.31515625 13.02882812 3.3828125 12.75390625 C1 12 1 12 -1 11 C-1 10.34 -1 9.68 -1 9 C0.32 9 1.64 9 3 9 C3 8.34 3 7.68 3 7 C2.01 6.67 1.02 6.34 0 6 C-1 3 -1 3 0 0 Z " fill="#DDDEF2" transform="translate(140,190)"/>
<path d="M0 0 C2.64 0 5.28 0 8 0 C6.25 3.875 6.25 3.875 4 5 C3.67 5.804375 3.34 6.60875 3 7.4375 C-0.1000006 11.40937577 -4.18553501 11.39480459 -9 12 C-8 9 -8 9 -6.15234375 7.83203125 C-5.42144531 7.49558594 -4.69054687 7.15914062 -3.9375 6.8125 C-2.83728516 6.29623047 -2.83728516 6.29623047 -1.71484375 5.76953125 C-1.14894531 5.51558594 -0.58304688 5.26164063 0 5 C0 3.35 0 1.7 0 0 Z " fill="#2A2779" transform="translate(184,186)"/>
<path d="M0 0 C3.29714793 0.32971479 4.6226839 0.6226839 7 3 C7.56520003 5.65537372 7.73788198 8.29144713 8 11 C5.03 11 2.06 11 -1 11 C-1.66 12.32 -2.32 13.64 -3 15 C-5.125 15.75 -5.125 15.75 -7 16 C-6.63926776 13.38469124 -6.20250273 12.20250273 -4.3125 10.3125 C-1.5489366 8.74399104 0.86225474 8.35656196 4 8 C3.67 6.35 3.34 4.7 3 3 C1.35 2.67 -0.3 2.34 -2 2 C-1.34 1.34 -0.68 0.68 0 0 Z " fill="#1F1F7C" transform="translate(167,165)"/>
<path d="M0 0 C2.5625 0.1875 2.5625 0.1875 4.5625 2.1875 C4.30775692 6.77287549 3.70281285 9.77411647 0.5625 13.1875 C-0.4375 10.1875 -0.4375 10.1875 -0.4375 7.1875 C-1.7575 6.8575 -3.0775 6.5275 -4.4375 6.1875 C-3.3735 0.2595 -3.3735 0.2595 0 0 Z " fill="#EEEFF4" transform="translate(122.4375,111.8125)"/>
<path d="M0 0 C0.33 0 0.66 0 1 0 C1 10.56 1 21.12 1 32 C0.67 32 0.34 32 0 32 C-0.33 25.4 -0.66 18.8 -1 12 C-1.99 12 -2.98 12 -4 12 C-4 12.66 -4 13.32 -4 14 C-4.66 13.67 -5.32 13.34 -6 13 C-5.01 11.02 -4.02 9.04 -3 7 C-2.34 7 -1.68 7 -1 7 C-0.67 4.69 -0.34 2.38 0 0 Z " fill="#403F96" transform="translate(131,108)"/>
<path d="M0 0 C0.09978121 3.49234244 -0.22157062 6.59437148 -1 10 C-2.65 10.33 -4.3 10.66 -6 11 C-8.16981132 6.66037736 -8.16981132 6.66037736 -7.4375 3.8125 C-5.58763065 1.48005604 -3.08462244 0 0 0 Z " fill="#F5F5F7" transform="translate(124,116)"/>
<path d="M0 0 C1.2065625 0.0309375 1.2065625 0.0309375 2.4375 0.0625 C2.540625 1.01125 2.64375 1.96 2.75 2.9375 C3.12289295 6.35357501 3.12289295 6.35357501 6.4375 8.0625 C6.1075 9.3825 5.7775 10.7025 5.4375 12.0625 C4.90125 11.464375 4.365 10.86625 3.8125 10.25 C1.20607355 7.84934406 -1.3509073 6.52231486 -4.5625 5.0625 C-3.43829114 0.08386076 -3.43829114 0.08386076 0 0 Z " fill="#E6E6F8" transform="translate(161.5625,105.9375)"/>
<path d="M0 0 C0.33 0 0.66 0 1 0 C1.02505615 0.98806641 1.0501123 1.97613281 1.07592773 2.99414062 C1.17074718 6.69184324 1.27077975 10.38939025 1.37231445 14.08691406 C1.41538357 15.68127784 1.45707576 17.27567947 1.49731445 18.87011719 C1.55570305 21.17394375 1.61919211 23.47758459 1.68359375 25.78125 C1.70030624 26.48366821 1.71701874 27.18608643 1.73423767 27.90979004 C1.87361589 32.66237283 2.35111297 37.28921871 3 42 C0.11736588 39.55355804 0.01412003 39.16254731 -0.34057617 35.0793457 C-0.34010167 33.44474725 -0.32318098 31.81010054 -0.29296875 30.17578125 C-0.28872391 29.31438034 -0.28447906 28.45297943 -0.28010559 27.56547546 C-0.26331248 24.81416569 -0.22565956 22.06358838 -0.1875 19.3125 C-0.17245396 17.4472762 -0.15876541 15.58204093 -0.14648438 13.71679688 C-0.11340693 9.14424902 -0.0616206 4.5722487 0 0 Z " fill="#121363" transform="translate(111,162)"/>
<path d="M0 0 C0.33 0 0.66 0 1 0 C1 1.98 1 3.96 1 6 C5.16138263 6.08159574 8.9472484 5.98248524 13 5 C10.75 7.5 10.75 7.5 8 10 C4.23312136 10 3.08809695 9.76462683 0 8 C0 5.36 0 2.72 0 0 Z " fill="#181876" transform="translate(166,192)"/>
<path d="M0 0 C0.33 0 0.66 0 1 0 C1.11611395 4.24977046 1.18722349 8.49913337 1.25 12.75 C1.28351563 13.9565625 1.31703125 15.163125 1.3515625 16.40625 C1.36445313 17.56640625 1.37734375 18.7265625 1.390625 19.921875 C1.4220459 21.52434082 1.4220459 21.52434082 1.45410156 23.15917969 C0.89617725 26.64950618 -0.31343399 27.79682995 -3 30 C-2.690625 28.7625 -2.38125 27.525 -2.0625 26.25 C-0.30361525 17.64269164 -0.31350653 8.75524345 0 0 Z " fill="#0B0B70" transform="translate(130,116)"/>
<path d="M0 0 C0.99 0.33 1.98 0.66 3 1 C3 4 3 4 0.875 6.75 C-2 9 -2 9 -5.3125 8.8125 C-6.199375 8.544375 -7.08625 8.27625 -8 8 C-6.68 7.67 -5.36 7.34 -4 7 C-4 5.35 -4 3.7 -4 2 C-2.68 2 -1.36 2 0 2 C0 1.34 0 0.68 0 0 Z " fill="#1B1B8D" transform="translate(155,97)"/>
<path d="M0 0 C0 1.65 0 3.3 0 5 C-0.66 4.67 -1.32 4.34 -2 4 C-3.7325 4.2784375 -3.7325 4.2784375 -5.5 4.5625 C-6.655 4.706875 -7.81 4.85125 -9 5 C-9.66 4.34 -10.32 3.68 -11 3 C-7.74003139 -0.25996861 -4.40088745 -1.46696248 0 0 Z " fill="#141381" transform="translate(138,217)"/>
<path d="M0 0 C0.33 0 0.66 0 1 0 C1.06058594 1.18078125 1.12117187 2.3615625 1.18359375 3.578125 C1.26802582 5.1354277 1.35267249 6.69271879 1.4375 8.25 C1.47681641 9.02730469 1.51613281 9.80460938 1.55664062 10.60546875 C1.59853516 11.35957031 1.64042969 12.11367187 1.68359375 12.890625 C1.72025146 13.58188477 1.75690918 14.27314453 1.79467773 14.98535156 C1.93622276 17.03714778 1.93622276 17.03714778 2.64477539 19.06933594 C3 21 3 21 1 24 C1 22.68 1 21.36 1 20 C-0.32 20.33 -1.64 20.66 -3 21 C-2.68289062 20.34644531 -2.36578125 19.69289062 -2.0390625 19.01953125 C-0.7271334 15.20704555 -0.54673638 11.69110429 -0.375 7.6875 C-0.33632812 6.94693359 -0.29765625 6.20636719 -0.2578125 5.44335938 C-0.16418295 3.62928691 -0.08103149 1.81467884 0 0 Z " fill="#231F89" transform="translate(140,125)"/>
<path d="M0 0 C3.63 0 7.26 0 11 0 C11 0.66 11 1.32 11 2 C10.34 2 9.68 2 9 2 C9 2.66 9 3.32 9 4 C6.36 4 3.72 4 1 4 C1.33 3.01 1.66 2.02 2 1 C1.34 0.67 0.68 0.34 0 0 Z " fill="#15127E" transform="translate(120,212)"/>
<path d="M0 0 C1.65 0.33 3.3 0.66 5 1 C-1.76877682 7.95171674 -1.76877682 7.95171674 -6.1875 8.125 C-7.115625 8.08375 -8.04375 8.0425 -9 8 C-8.34 7.34 -7.68 6.68 -7 6 C-5.68 6 -4.36 6 -3 6 C-3 5.34 -3 4.68 -3 4 C-2.34 3.67 -1.68 3.34 -1 3 C-0.67 2.01 -0.34 1.02 0 0 Z " fill="#E6E4F8" transform="translate(117,125)"/>
<path d="M0 0 C1.95245143 6.34546714 0.71489384 11.78350981 -1 18 C-1.33 18 -1.66 18 -2 18 C-2.05382106 15.37472811 -2.09358313 12.75055287 -2.125 10.125 C-2.14175781 9.37863281 -2.15851563 8.63226563 -2.17578125 7.86328125 C-2.1933959 5.90805539 -2.10320189 3.95257979 -2 2 C-1.34 1.34 -0.68 0.68 0 0 Z " fill="#121580" transform="translate(179,127)"/>
<path d="M0 0 C3.45925163 1.2491742 6.14693203 2.67527795 9 5 C2.9453125 5.9765625 2.9453125 5.9765625 1 6 C0.34 5.34 -0.32 4.68 -1 4 C-0.625 1.875 -0.625 1.875 0 0 Z " fill="#E2E4F1" transform="translate(121,148)"/>
<path d="M0 0 C1.65 0 3.3 0 5 0 C4.195625 0.763125 3.39125 1.52625 2.5625 2.3125 C-0.16799024 4.79430898 -0.16799024 4.79430898 -1 8 C-1.66 8 -2.32 8 -3 8 C-3.33 8.66 -3.66 9.32 -4 10 C-4.33 9.01 -4.66 8.02 -5 7 C-4.34 7 -3.68 7 -3 7 C-3.33 5.68 -3.66 4.36 -4 3 C-3.01 2.67 -2.02 2.34 -1 2 C-0.67 1.34 -0.34 0.68 0 0 Z " fill="#131376" transform="translate(134,100)"/>
<path d="M0 0 C2 3 2 3 2 5 C3.32 5.33 4.64 5.66 6 6 C5.67 6.99 5.34 7.98 5 9 C2.625 8.3125 2.625 8.3125 0 7 C-1.3125 4.375 -1.3125 4.375 -2 2 C-1.34 1.34 -0.68 0.68 0 0 Z " fill="#F9FBEF" transform="translate(138,191)"/>
<path d="M0 0 C0.33 0 0.66 0 1 0 C1 1.65 1 3.3 1 5 C-0.11375 5.474375 -1.2275 5.94875 -2.375 6.4375 C-4.26710994 7.25306463 -6.15712709 8.07856355 -8 9 C-8.33 7.68 -8.66 6.36 -9 5 C-5.535 4.505 -5.535 4.505 -2 4 C-2 3.34 -2 2.68 -2 2 C-1.34 2 -0.68 2 0 2 C0 1.34 0 0.68 0 0 Z " fill="#E7E8F5" transform="translate(170,168)"/>
<path d="M0 0 C0.99 0.33 1.98 0.66 3 1 C2.67 2.32 2.34 3.64 2 5 C2.66 5.33 3.32 5.66 4 6 C0.42355152 7.2380014 -2.33694766 6.74926071 -6 6 C-5.67 5.34 -5.34 4.68 -5 4 C-3.35 4 -1.7 4 0 4 C0 2.68 0 1.36 0 0 Z " fill="#121470" transform="translate(139,201)"/>
<path d="M0 0 C0.391875 0.53625 0.78375 1.0725 1.1875 1.625 C3.3755388 4.49208532 5.67879296 7.23964568 8 10 C5.03 9.505 5.03 9.505 2 9 C2 8.34 2 7.68 2 7 C1.01 6.67 0.02 6.34 -1 6 C-0.67 4.02 -0.34 2.04 0 0 Z " fill="#232571" transform="translate(131,191)"/>
<path d="M0 0 C2.64 0 5.28 0 8 0 C6.9024777 2.99324263 6.32317108 3.84610901 3.375 5.25 C2.59125 5.4975 1.8075 5.745 1 6 C0.67 4.02 0.34 2.04 0 0 Z " fill="#1A197A" transform="translate(184,186)"/>
<path d="M0 0 C2.6875 -0.3125 2.6875 -0.3125 5 0 C5 0.99 5 1.98 5 3 C4.34 3 3.68 3 3 3 C3 3.66 3 4.32 3 5 C1.02 5 -0.96 5 -3 5 C-1.8125 2.5 -1.8125 2.5 0 0 Z " fill="#F3F6F1" transform="translate(165,167)"/>
<path d="M0 0 C0.99 0 1.98 0 3 0 C3 0.66 3 1.32 3 2 C3.66 2 4.32 2 5 2 C4.67 2.99 4.34 3.98 4 5 C1.66666667 5 -0.66666667 5 -3 5 C-1.125 1.125 -1.125 1.125 0 0 Z " fill="#12118C" transform="translate(151,167)"/>
<path d="M0 0 C2.475 0.99 2.475 0.99 5 2 C4.74438677 4.3431213 4.40729228 6.67843403 4 9 C3.01 9.495 3.01 9.495 2 10 C1.01 7.03 0.02 4.06 -1 1 C-0.67 0.67 -0.34 0.34 0 0 Z " fill="#FAFCEA" transform="translate(152,124)"/>
<path d="M0 0 C0.66 0.33 1.32 0.66 2 1 C1.2884375 2.175625 1.2884375 2.175625 0.5625 3.375 C-0.33898023 4.88948678 -1.21179485 6.4235897 -2 8 C-2.66 8 -3.32 8 -4 8 C-3.67 9.32 -3.34 10.64 -3 12 C-3.66 11.67 -4.32 11.34 -5 11 C-4.50769231 3.49230769 -4.50769231 3.49230769 -1.9375 1 C-1.298125 0.67 -0.65875 0.34 0 0 Z " fill="#222183" transform="translate(145,105)"/>
<path d="M0 0 C0.99 0 1.98 0 3 0 C1.54773858 3.82868919 -0.33318013 5.2538953 -4 7 C-5.32 7 -6.64 7 -8 7 C-8 6.34 -8 5.68 -8 5 C-7.05125 4.731875 -6.1025 4.46375 -5.125 4.1875 C-1.74732727 3.25013412 -1.74732727 3.25013412 0 0 Z " fill="#2B2A6F" transform="translate(148,210)"/>
<path d="M0 0 C0.66 0.33 1.32 0.66 2 1 C1.67 1.66 1.34 2.32 1 3 C3.97 3.495 3.97 3.495 7 4 C6.67 4.99 6.34 5.98 6 7 C3.69 6.34 1.38 5.68 -1 5 C-1 1 -1 1 0 0 Z " fill="#E5E6F3" transform="translate(145,198)"/>
<path d="M0 0 C0.33 0.66 0.66 1.32 1 2 C0.01 2.99 -0.98 3.98 -2 5 C-2.99 4.67 -3.98 4.34 -5 4 C-5.33 4.66 -5.66 5.32 -6 6 C-7.32 5.34 -8.64 4.68 -10 4 C-6.71536341 1.81024227 -3.79303725 1.00193437 0 0 Z " fill="#1A1D75" transform="translate(116,131)"/>
<path d="M0 0 C1.9375 0.3125 1.9375 0.3125 4 1 C4.33 1.99 4.66 2.98 5 4 C4.34 4 3.68 4 3 4 C3.33 5.65 3.66 7.3 4 9 C3.34 8.34 2.68 7.68 2 7 C2 6.01 2 5.02 2 4 C0.35 3.67 -1.3 3.34 -3 3 C-2.01 2.67 -1.02 2.34 0 2 C0 1.34 0 0.68 0 0 Z " fill="#0B0A88" transform="translate(124,107)"/>
<path d="M0 0 C0.33 0 0.66 0 1 0 C1 3.3 1 6.6 1 10 C-1.97 9.505 -1.97 9.505 -5 9 C-4.360625 8.071875 -3.72125 7.14375 -3.0625 6.1875 C-0.91377907 3.15780057 -0.91377907 3.15780057 0 0 Z " fill="#302E7D" transform="translate(159,211)"/>
<path d="M0 0 C0.86625 0.3403125 0.86625 0.3403125 1.75 0.6875 C0.76 1.0175 -0.23 1.3475 -1.25 1.6875 C-1.559375 2.3475 -1.86875 3.0075 -2.1875 3.6875 C-3.25 5.6875 -3.25 5.6875 -5.375 6.4375 C-6.303125 6.56125 -6.303125 6.56125 -7.25 6.6875 C-6.87492618 3.96821483 -6.40781339 2.84531339 -4.4375 0.875 C-2.25 -0.3125 -2.25 -0.3125 0 0 Z " fill="#353180" transform="translate(167.25,174.3125)"/>
<path d="M0 0 C2.5625 0.1875 2.5625 0.1875 4.5625 2.1875 C4.1875 5.3125 4.1875 5.3125 3.5625 8.1875 C3.2325 8.1875 2.9025 8.1875 2.5625 8.1875 C2.2325 5.8775 1.9025 3.5675 1.5625 1.1875 C-1.59865776 2.55733503 -2.4302092 3.1765638 -4.4375 6.1875 C-3.3735 0.2595 -3.3735 0.2595 0 0 Z " fill="#D3D4F2" transform="translate(122.4375,111.8125)"/>
<path d="M0 0 C0.33 0.66 0.66 1.32 1 2 C1.66 2 2.32 2 3 2 C7 7.41176471 7 7.41176471 7 10 C3.17398693 8.54875366 1.77670876 6.64225296 0 3 C0 2.01 0 1.02 0 0 Z " fill="#EBEEFA" transform="translate(132,190)"/>
<path d="M0 0 C2.00720923 0.28674418 4.0085944 0.61866701 6 1 C6 1.33 6 1.66 6 2 C4.35 2 2.7 2 1 2 C1 7.28 1 12.56 1 18 C0.67 18 0.34 18 0 18 C-0.19384179 15.18780295 -0.38036603 12.37545804 -0.5625 9.5625 C-0.61857422 8.76005859 -0.67464844 7.95761719 -0.73242188 7.13085938 C-0.8616295 5.08937889 -0.9351273 3.04453631 -1 1 C-0.67 0.67 -0.34 0.34 0 0 Z " fill="#CECDF2" transform="translate(139,123)"/>
<path d="M0 0 C2.64 0 5.28 0 8 0 C8 0.66 8 1.32 8 2 C9.32 2.33 10.64 2.66 12 3 C8.10885099 4.01911045 6.39403493 4.16782969 2.625 2.5625 C1.75875 2.046875 0.8925 1.53125 0 1 C0 0.67 0 0.34 0 0 Z " fill="#232279" transform="translate(127,202)"/>
<path d="M0 0 C2.97 0.99 5.94 1.98 9 3 C6.64046906 5.35953094 5.22104383 5.49141413 2 6 C1.34 4.02 0.68 2.04 0 0 Z " fill="#E4E6F5" transform="translate(140,116)"/>
<path d="M0 0 C1.98 0.66 3.96 1.32 6 2 C6.33 3.65 6.66 5.3 7 7 C6.34 7 5.68 7 5 7 C0 1.4047619 0 1.4047619 0 0 Z " fill="#FBFCF0" transform="translate(163,109)"/>
<path d="M0 0 C2 2 2 2 2 6 C1.01 5.67 0.02 5.34 -1 5 C-0.67 4.01 -0.34 3.02 0 2 C-2.64 2 -5.28 2 -8 2 C-4.77626323 -0.14915785 -3.73296326 -0.38286803 0 0 Z " fill="#D6D9F6" transform="translate(149,98)"/>
<path d="M0 0 C0.33 1.32 0.66 2.64 1 4 C-0.65 4.66 -2.3 5.32 -4 6 C-4 5.34 -4 4.68 -4 4 C-4.66 3.67 -5.32 3.34 -6 3 C-2.25 0 -2.25 0 0 0 Z " fill="#0C0C9A" transform="translate(133,98)"/>
<path d="M0 0 C0.556875 0.28875 1.11375 0.5775 1.6875 0.875 C4.08494645 2.0413253 6.51596939 3.0339881 9 4 C9 4.33 9 4.66 9 5 C5.625 5.125 5.625 5.125 2 5 C1.34 4.34 0.68 3.68 0 3 C0 2.01 0 1.02 0 0 Z " fill="#161463" transform="translate(123,197)"/>
<path d="M0 0 C2 1.25 2 1.25 4 3 C4 4.32 4 5.64 4 7 C3.01 7 2.02 7 1 7 C0.67 6.01 0.34 5.02 0 4 C-0.66 3.34 -1.32 2.68 -2 2 C-1.34 2 -0.68 2 0 2 C0 1.34 0 0.68 0 0 Z " fill="#EBEEF1" transform="translate(133,152)"/>
<path d="M0 0 C0.66 0.33 1.32 0.66 2 1 C2.25 3.25 2.25 3.25 2 6 C0 8.3125 0 8.3125 -2 10 C-1.34 6.7 -0.68 3.4 0 0 Z " fill="#231F86" transform="translate(116,115)"/>
<path d="M0 0 C1.65 0 3.3 0 5 0 C5.33 0.99 5.66 1.98 6 3 C4.02 3.99 4.02 3.99 2 5 C1.34 3.35 0.68 1.7 0 0 Z " fill="#14127C" transform="translate(170,155)"/>
<path d="M0 0 C3.3 0 6.6 0 10 0 C10 0.66 10 1.32 10 2 C5.545 2.495 5.545 2.495 1 3 C0.67 2.01 0.34 1.02 0 0 Z " fill="#282773" transform="translate(121,153)"/>
<path d="M0 0 C0.33 0 0.66 0 1 0 C1 1.98 1 3.96 1 6 C-0.32 6.33 -1.64 6.66 -3 7 C-3.66 6.01 -4.32 5.02 -5 4 C-4.0409375 3.8453125 -4.0409375 3.8453125 -3.0625 3.6875 C-2.381875 3.460625 -1.70125 3.23375 -1 3 C-0.67 2.01 -0.34 1.02 0 0 Z " fill="#EEF1FD" transform="translate(175,148)"/>
<path d="M0 0 C1.65 0 3.3 0 5 0 C3.515 2.475 3.515 2.475 2 5 C1.01 4.67 0.02 4.34 -1 4 C-0.67 2.68 -0.34 1.36 0 0 Z " fill="#F1F2F8" transform="translate(158,107)"/>
<path d="M0 0 C-0.66 0 -1.32 0 -2 0 C-2.33 1.32 -2.66 2.64 -3 4 C-4.65 4 -6.3 4 -8 4 C-7 1 -7 1 -5.125 -0.25 C-3 -1 -3 -1 0 0 Z " fill="#12146D" transform="translate(136,214)"/>
<path d="M0 0 C1.4540625 0.0309375 1.4540625 0.0309375 2.9375 0.0625 C3.2675 1.0525 3.5975 2.0425 3.9375 3.0625 C1.0625 3.1875 1.0625 3.1875 -2.0625 3.0625 C-2.7225 2.4025 -3.3825 1.7425 -4.0625 1.0625 C-3.0625 0.0625 -3.0625 0.0625 0 0 Z " fill="#D9DDF0" transform="translate(181.0625,185.9375)"/>
<path d="M0 0 C2.5 1.3125 2.5 1.3125 5 3 C5 3.99 5 4.98 5 6 C4.01 6.495 4.01 6.495 3 7 C0 2.25 0 2.25 0 0 Z " fill="#1C1A7D" transform="translate(145,125)"/>
<path d="M0 0 C-3.72965139 2.03435531 -5.66905042 3 -10 3 C-10 2.34 -10 1.68 -10 1 C-3.71428571 -1.42857143 -3.71428571 -1.42857143 0 0 Z " fill="#191A72" transform="translate(114,125)"/>
<path d="M0 0 C4.8 2.46153846 4.8 2.46153846 5.8125 5.1875 C5.874375 5.785625 5.93625 6.38375 6 7 C5.01 7 4.02 7 3 7 C3 5.68 3 4.36 3 3 C2.01 2.67 1.02 2.34 0 2 C0 1.34 0 0.68 0 0 Z " fill="#27217D" transform="translate(162,113)"/>
<path d="M0 0 C1.485 0.99 1.485 0.99 3 2 C2.67 3.32 2.34 4.64 2 6 C1.01 6 0.02 6 -1 6 C-1.042721 4.33388095 -1.04063832 2.66617115 -1 1 C-0.67 0.67 -0.34 0.34 0 0 Z " fill="#060D7F" transform="translate(113,113)"/>
<path d="M0 0 C0.33 0 0.66 0 1 0 C0.6875 3.375 0.6875 3.375 0 7 C-0.99 7.66 -1.98 8.32 -3 9 C-2.67 7.02 -2.34 5.04 -2 3 C-1.34 3 -0.68 3 0 3 C0 2.01 0 1.02 0 0 Z " fill="#202278" transform="translate(130,137)"/>
</svg>
